<?xml version="1.0" encoding="UTF-8" standalone="no"?>
<svg
   viewBox="10.6 0 896.2 28.39"
   version="1.1"
   id="svg66"
   sodipodi:docname="alt_legend_ft.svg"
   inkscape:version="1.3.2 (091e20e, 2023-11-25, custom)"
   xmlns:inkscape="http://www.inkscape.org/namespaces/inkscape"
   xmlns:sodipodi="http://sodipodi.sourceforge.net/DTD/sodipodi-0.dtd"
   xmlns="http://www.w3.org/2000/svg"
   xmlns:svg="http://www.w3.org/2000/svg">
  <sodipodi:namedview
     id="namedview66"
     pagecolor="#505050"
     bordercolor="#eeeeee"
     borderopacity="1"
     inkscape:showpageshadow="0"
     inkscape:pageopacity="0"
     inkscape:pagecheckerboard="0"
     inkscape:deskcolor="#505050"
     showgrid="false"
     inkscape:zoom="1.4142136"
     inkscape:cx="463.50849"
     inkscape:cy="11.667262"
     inkscape:window-width="1920"
     inkscape:window-height="1009"
     inkscape:window-x="-8"
     inkscape:window-y="-8"
     inkscape:window-maximized="1"
     inkscape:current-layer="svg66" />
  <defs
     id="defs10">
    <style
       id="style1">.cls-1{fill:url(#linear-gradient);}.cls-2{fill:none;stroke:#000;stroke-miterlimit:10;}</style>
    <linearGradient
       id="linear-gradient"
       x1="77.89"
       y1="6.58"
       x2="906.28"
       y2="6.58"
       gradientUnits="userSpaceOnUse">
      <stop
         offset="0.033"
         stop-color="hsl(23, 88%, 51%)"
         id="stop1" />
      <stop
         offset="0.066"
         stop-color="hsl(26, 88%, 52%)"
         id="stop2" />
      <stop
         offset="0.126"
         stop-color="hsl(32, 88%, 54%)"
         id="stop3" />
      <stop
         offset="0.19"
         stop-color="hsl(43, 88%, 53%)"
         id="stop4" />
      <stop
         offset="0.253"
         stop-color="hsl(54, 88%, 45%)"
         id="stop5" />
      <stop
         offset="0.316"
         stop-color="hsl(72, 88%, 42%)"
         id="stop6" />
      <stop
         offset="0.38"
         stop-color="hsl(112, 88%, 41%)"
         id="stop7" />
      <stop
         offset="0.59"
         stop-color="hsl(189, 88%, 44%)"
         id="stop8" />
      <stop
         offset="0.79"
         stop-color="hsl(244, 88%, 57%)"
         id="stop9" />
      <stop
         offset="1"
         stop-color="hsl(300, 88%, 43%)"
         id="stop10" />
    </linearGradient>
  </defs>
  <title
     id="title10">Altitude Legend (ft)</title>
  <g
     id="Layer_2"
     data-name="Layer 2">
    <g
       id="REDESIGN"
       style="display:inline">
      <rect
         class="cls-1"
         x="77.889999"
         width="828.40002"
         height="13.17"
         id="rect10"
         y="0" />
      <polyline
         class="cls-2"
         points="78 0 78 13.4 906.28 13.4 906.28 0"
         id="polyline10" />
      <line
         class="cls-2"
         x1="720.95001"
         x2="720.95001"
         y2="14.19"
         id="line16"
         y1="0" />
      <line
         class="cls-2"
         x1="551.12"
         x2="551.12"
         y2="14.19"
         id="line21"
         y1="0" />
      <line
         class="cls-2"
         x1="426.53"
         x2="426.53"
         y2="14.19"
         id="line26"
         y1="0" />
      <line
         class="cls-2"
         x1="369.76001"
         x2="369.76001"
         y2="14.19"
         id="line31"
         y1="0" />
      <line
         class="cls-2"
         x1="311.41"
         x2="311.41"
         y2="14.19"
         id="line35"
         y1="0" />
      <line
         class="cls-2"
         x1="253.06"
         x2="253.06"
         y2="14.19"
         id="line39"
         y1="0" />
      <line
         class="cls-2"
         x1="194.7"
         x2="194.7"
         y2="14.19"
         id="line43"
         y1="0" />
      <line
         class="cls-2"
         x1="136.35001"
         x2="136.35001"
         y2="14.19"
         id="line47"
         y1="0" />
      <line
         class="cls-2"
         x1="106.39"
         x2="106.39"
         y2="14.19"
         id="line51"
         y1="0" />
      <path
         d="M 13.50652,11.60299 15.1285,5.9853858 h 1.14726 l 1.62199,5.6176042 h -0.83078 l -0.36791,-1.368796 h -1.99385 l -0.36792,1.368796 z m 1.40044,-2.1204482 h 1.59034 l -0.75956,-2.816714 h -0.0712 z M 18.70874,11.60299 V 5.9853858 h 0.82286 v 4.8659532 h 2.89583 v 0.751651 z m 6.07651,0 V 6.7370368 h -1.64572 v -0.751651 h 4.114297 v 0.751651 H 25.60811 V 11.60299 Z m 3.44968,0 v -0.751651 h 1.293631 V 6.7370368 H 28.23493 v -0.751651 h 3.418035 v 0.751651 h -1.301543 v 4.1143022 h 1.301543 v 0.751651 z m 6.044859,0 V 6.7370368 h -1.645721 v -0.751651 h 4.114302 v 0.751651 H 35.102649 V 11.60299 Z m 5.142878,0.07912 q -1.803963,0 -1.803963,-1.8830852 v -3.813639 h 0.822861 v 3.813641 q 0,0.5617612 0.241319,0.8465972 0.24132,0.284836 0.755608,0.284836 0.996927,0 0.996927,-1.1314332 v -3.813641 h 0.82286 v 3.813641 q 0,0.9415422 -0.466815,1.4123132 -0.466815,0.470772 -1.368797,0.470772 z m 2.943308,-0.07912 V 5.9853858 h 1.360884 q 2.571439,0 2.571439,2.887923 0,2.7296812 -2.571439,2.7296812 z m 0.82286,-0.751651 h 0.538024 q 1.740666,0 1.740666,-1.9780302 0,-2.136272 -1.740666,-2.136272 h -0.538024 z m 4.003532,0.751651 V 5.9853858 h 3.718696 v 0.751651 h -2.895836 v 1.677369 h 2.183745 v 0.751652 h -2.183745 v 1.6852812 h 2.895836 v 0.751651 z m 12.619832,0.791212 q -1.28572,0 -1.99781,-0.945498 -0.708135,-0.949454 -0.708135,-2.6782522 0,-1.705062 0.708135,-2.638692 0.71209,-0.937586 1.99781,-0.937586 h 0.18989 v 0.712091 H 59.89132 q -0.937586,0 -1.447918,0.751651 -0.506376,0.751651 -0.506376,2.112536 0,1.3846212 0.506376,2.1481402 0.510332,0.76352 1.447918,0.76352 h 0.110769 v 0.71209 z M 62.391551,11.60299 V 9.0711118 h -1.321324 v -0.735827 h 1.321324 v -0.569672 q 0,-2.175833 1.985941,-2.175833 0.450991,0 0.870333,0.07912 l -0.08703,0.727915 q -0.249232,-0.03165 -0.439122,-0.04352 -0.189891,-0.01187 -0.367914,-0.01187 -1.123521,0 -1.123521,1.384621 v 0.609233 h 1.71693 v 0.735827 h -1.71693 v 2.5318782 z m 6.290131,0.07912 q -0.95341,0 -1.380664,-0.395606 -0.423299,-0.395606 -0.423299,-1.265939 V 8.1453938 h -1.052312 v -0.735827 h 1.052312 v -1.265939 h 0.838685 v 1.265939 h 1.906821 v 0.735827 h -1.906821 v 1.835612 q 0,0.4984632 0.241319,0.7239592 0.245276,0.225495 0.803081,0.225495 0.197803,0 0.419342,-0.01978 0.221539,-0.02374 0.506375,-0.05934 l 0.09495,0.735827 q -0.276924,0.04747 -0.54198,0.07121 -0.2611,0.02374 -0.557805,0.02374 z m 2.413198,0.71209 v -0.71209 h 0.110769 q 0.937587,0 1.443962,-0.76352 0.510332,-0.763519 0.510332,-2.1481402 0,-1.360885 -0.510332,-2.112536 -0.506375,-0.751649 -1.443962,-0.751649 H 71.09488 v -0.712091 h 0.189891 q 1.289675,0 1.99781,0.937586 0.708134,0.93363 0.708134,2.638692 0,1.7287982 -0.708134,2.6782522 -0.708135,0.945498 -1.99781,0.945498 z"
         id="text66"
         style="font-size:8.10201px;font-family:'Cascadia Code';-inkscape-font-specification:'Cascadia Code';stroke-width:1.66888"
         inkscape:label="text65"
         aria-label="ALTITUDE (ft)" />
      <path
         d="m 78.074443,24.297445 q -1.914733,0 -1.914733,-2.848363 0,-2.927484 1.914733,-2.927484 1.914732,0 1.914732,2.927484 0,2.848363 -1.914732,2.848363 z m 0,-0.727915 q 1.068136,0 1.068136,-2.120448 0,-2.199569 -1.068136,-2.199569 -1.068136,0 -1.068136,2.199569 0,2.120448 1.068136,2.120448 z m 0,-1.527039 q -0.265056,0 -0.431211,-0.162198 -0.162198,-0.166155 -0.162198,-0.431211 0,-0.269012 0.162198,-0.43121 0.166155,-0.162199 0.431211,-0.162199 0.269012,0 0.43121,0.162199 0.162199,0.162198 0.162199,0.43121 0,0.265056 -0.162199,0.431211 -0.162198,0.162198 -0.43121,0.162198 z"
         id="text66-0"
         style="font-size:8.10201px;font-family:'Cascadia Code';-inkscape-font-specification:'Cascadia Code';stroke-width:1.66888"
         inkscape:label="text67"
         aria-label="0" />
      <path
         d="m 101.67587,24.297022 q -0.90989,0 -1.40836,-0.431211 -0.49846,-0.435166 -0.49846,-1.222422 h 0.8466 q 0,0.439122 0.27692,0.684398 0.27693,0.24132 0.79121,0.24132 0.50638,0 0.7833,-0.304617 0.27693,-0.304616 0.27693,-0.858465 0,-0.54198 -0.30066,-0.838684 -0.30066,-0.300661 -0.85451,-0.300661 -0.55385,0 -1.03649,0.2611 h -0.44308 l 0.0791,-2.927484 h 3.03034 v 0.735827 h -2.20748 l -0.0435,1.360885 q 0.22549,-0.08308 0.44703,-0.11077 0.2255,-0.03165 0.45099,-0.03165 0.81495,0 1.26198,0.48264 0.44704,0.482639 0.44704,1.368796 0,0.901982 -0.49846,1.396489 -0.49451,0.494508 -1.40045,0.494508 z m 4.69189,0 q -1.91474,0 -1.91474,-2.848363 0,-2.927484 1.91474,-2.927484 1.91473,0 1.91473,2.927484 0,2.848363 -1.91473,2.848363 z m 0,-0.727915 q 1.06813,0 1.06813,-2.120448 0,-2.199569 -1.06813,-2.199569 -1.06814,0 -1.06814,2.199569 0,2.120448 1.06814,2.120448 z m 0,-1.527039 q -0.26506,0 -0.43121,-0.162199 -0.1622,-0.166154 -0.1622,-0.43121 0,-0.269012 0.1622,-0.431211 0.16615,-0.162198 0.43121,-0.162198 0.26901,0 0.43121,0.162198 0.1622,0.162199 0.1622,0.431211 0,0.265056 -0.1622,0.43121 -0.1622,0.162199 -0.43121,0.162199 z m 4.74727,2.254954 q -1.91473,0 -1.91473,-2.848363 0,-2.927484 1.91473,-2.927484 1.91473,0 1.91473,2.927484 0,2.848363 -1.91473,2.848363 z m 0,-0.727915 q 1.06814,0 1.06814,-2.120448 0,-2.199569 -1.06814,-2.199569 -1.06814,0 -1.06814,2.199569 0,2.120448 1.06814,2.120448 z m 0,-1.527039 q -0.26506,0 -0.43121,-0.162199 -0.1622,-0.166154 -0.1622,-0.43121 0,-0.269012 0.1622,-0.431211 0.16615,-0.162198 0.43121,-0.162198 0.26901,0 0.43121,0.162198 0.1622,0.162199 0.1622,0.431211 0,0.265056 -0.1622,0.43121 -0.1622,0.162199 -0.43121,0.162199 z"
         id="text67"
         style="font-size:8.10201px;font-family:'Cascadia Code';-inkscape-font-specification:'Cascadia Code';stroke-width:1.66888"
         aria-label="500" />
      <path
         d="m 127.23191,24.217901 v -0.751652 h 1.40836 v -4.051005 l -1.32924,0.458903 v -0.799124 l 1.32924,-0.474727 h 0.82286 v 4.865953 h 1.25803 v 0.751652 z m 6.44838,0.07912 q -1.91473,0 -1.91473,-2.848363 0,-2.927484 1.91473,-2.927484 1.91473,0 1.91473,2.927484 0,2.848363 -1.91473,2.848363 z m 0,-0.727915 q 1.06813,0 1.06813,-2.120448 0,-2.199569 -1.06813,-2.199569 -1.06814,0 -1.06814,2.199569 0,2.120448 1.06814,2.120448 z m 0,-1.527039 q -0.26506,0 -0.43121,-0.162199 -0.1622,-0.166154 -0.1622,-0.43121 0,-0.269012 0.1622,-0.431211 0.16615,-0.162198 0.43121,-0.162198 0.26901,0 0.43121,0.162198 0.1622,0.162199 0.1622,0.431211 0,0.265056 -0.1622,0.43121 -0.1622,0.162199 -0.43121,0.162199 z m 4.74727,2.254954 q -1.91473,0 -1.91473,-2.848363 0,-2.927484 1.91473,-2.927484 1.91473,0 1.91473,2.927484 0,2.848363 -1.91473,2.848363 z m 0,-0.727915 q 1.06814,0 1.06814,-2.120448 0,-2.199569 -1.06814,-2.199569 -1.06814,0 -1.06814,2.199569 0,2.120448 1.06814,2.120448 z m 0,-1.527039 q -0.26506,0 -0.43121,-0.162199 -0.1622,-0.166154 -0.1622,-0.43121 0,-0.269012 0.1622,-0.431211 0.16615,-0.162198 0.43121,-0.162198 0.26901,0 0.43121,0.162198 0.1622,0.162199 0.1622,0.431211 0,0.265056 -0.1622,0.43121 -0.1622,0.162199 -0.43121,0.162199 z m 4.74727,2.254954 q -1.91473,0 -1.91473,-2.848363 0,-2.927484 1.91473,-2.927484 1.91473,0 1.91473,2.927484 0,2.848363 -1.91473,2.848363 z m 0,-0.727915 q 1.06814,0 1.06814,-2.120448 0,-2.199569 -1.06814,-2.199569 -1.06813,0 -1.06813,2.199569 0,2.120448 1.06813,2.120448 z m 0,-1.527039 q -0.26505,0 -0.43121,-0.162199 -0.1622,-0.166154 -0.1622,-0.43121 0,-0.269012 0.1622,-0.431211 0.16616,-0.162198 0.43121,-0.162198 0.26901,0 0.43121,0.162198 0.1622,0.162199 0.1622,0.431211 0,0.265056 -0.1622,0.43121 -0.1622,0.162199 -0.43121,0.162199 z"
         id="text68"
         style="font-size:8.10201px;font-family:'Cascadia Code';-inkscape-font-specification:'Cascadia Code';stroke-width:1.66888"
         aria-label="1000" />
      <path
         d="m 185.59289,24.217901 v -0.901982 q 1.30155,-0.720003 1.94243,-1.495391 0.64483,-0.779343 0.64483,-1.60616 0,-0.965278 -0.95736,-0.965278 -0.32044,0 -0.66858,0.185935 -0.34813,0.185934 -0.59736,0.494507 l -0.54594,-0.54198 q 0.27297,-0.39165 0.77539,-0.629014 0.50242,-0.237363 1.05231,-0.237363 1.77232,0 1.77232,1.693193 0,0.850553 -0.54198,1.633853 -0.53803,0.779344 -1.64177,1.499346 v 0.118682 h 2.42111 v 0.751652 z m 6.51959,0.07912 q -1.91473,0 -1.91473,-2.848363 0,-2.927484 1.91473,-2.927484 1.91473,0 1.91473,2.927484 0,2.848363 -1.91473,2.848363 z m 0,-0.727915 q 1.06813,0 1.06813,-2.120448 0,-2.199569 -1.06813,-2.199569 -1.06814,0 -1.06814,2.199569 0,2.120448 1.06814,2.120448 z m 0,-1.527039 q -0.26506,0 -0.43121,-0.162199 -0.1622,-0.166154 -0.1622,-0.43121 0,-0.269012 0.1622,-0.431211 0.16615,-0.162198 0.43121,-0.162198 0.26901,0 0.43121,0.162198 0.1622,0.162199 0.1622,0.431211 0,0.265056 -0.1622,0.43121 -0.1622,0.162199 -0.43121,0.162199 z m 4.74727,2.254954 q -1.91473,0 -1.91473,-2.848363 0,-2.927484 1.91473,-2.927484 1.91473,0 1.91473,2.927484 0,2.848363 -1.91473,2.848363 z m 0,-0.727915 q 1.06814,0 1.06814,-2.120448 0,-2.199569 -1.06814,-2.199569 -1.06814,0 -1.06814,2.199569 0,2.120448 1.06814,2.120448 z m 0,-1.527039 q -0.26506,0 -0.43121,-0.162199 -0.1622,-0.166154 -0.1622,-0.43121 0,-0.269012 0.1622,-0.431211 0.16615,-0.162198 0.43121,-0.162198 0.26901,0 0.43121,0.162198 0.1622,0.162199 0.1622,0.431211 0,0.265056 -0.1622,0.43121 -0.1622,0.162199 -0.43121,0.162199 z m 4.74727,2.254954 q -1.91473,0 -1.91473,-2.848363 0,-2.927484 1.91473,-2.927484 1.91473,0 1.91473,2.927484 0,2.848363 -1.91473,2.848363 z m 0,-0.727915 q 1.06814,0 1.06814,-2.120448 0,-2.199569 -1.06814,-2.199569 -1.06813,0 -1.06813,2.199569 0,2.120448 1.06813,2.120448 z m 0,-1.527039 q -0.26505,0 -0.43121,-0.162199 -0.1622,-0.166154 -0.1622,-0.43121 0,-0.269012 0.1622,-0.431211 0.16616,-0.162198 0.43121,-0.162198 0.26901,0 0.43121,0.162198 0.1622,0.162199 0.1622,0.431211 0,0.265056 -0.1622,0.43121 -0.1622,0.162199 -0.43121,0.162199 z"
         id="text69"
         style="font-size:8.10201px;font-family:'Cascadia Code';-inkscape-font-specification:'Cascadia Code';stroke-width:1.66888"
         aria-label="2000" />
      <path
         d="m 243.78434,22.959874 0.79119,-4.043091 h 0.85449 l -0.65274,3.307264 h 1.79206 v -3.623749 h 0.82284 v 3.623749 h 0.53009 v 0.735827 h -0.53009 V 24.2179 h -0.82284 v -1.258026 z m 6.82799,1.337147 q -1.91468,0 -1.91468,-2.848361 0,-2.927483 1.91468,-2.927483 1.91469,0 1.91469,2.927483 0,2.848361 -1.91469,2.848361 z m 0,-0.727915 q 1.06811,0 1.06811,-2.120446 0,-2.199568 -1.06811,-2.199568 -1.0681,0 -1.0681,2.199568 0,2.120446 1.0681,2.120446 z m 0,-1.527038 q -0.26504,0 -0.4312,-0.162198 -0.16219,-0.166155 -0.16219,-0.43121 0,-0.269012 0.16219,-0.43121 0.16616,-0.162199 0.4312,-0.162199 0.26901,0 0.4312,0.162199 0.1622,0.162198 0.1622,0.43121 0,0.265055 -0.1622,0.43121 -0.16219,0.162198 -0.4312,0.162198 z m 4.74716,2.254953 q -1.91469,0 -1.91469,-2.848361 0,-2.927483 1.91469,-2.927483 1.91468,0 1.91468,2.927483 0,2.848361 -1.91468,2.848361 z m 0,-0.727915 q 1.06811,0 1.06811,-2.120446 0,-2.199568 -1.06811,-2.199568 -1.06811,0 -1.06811,2.199568 0,2.120446 1.06811,2.120446 z m 0,-1.527038 q -0.26505,0 -0.4312,-0.162198 -0.1622,-0.166155 -0.1622,-0.43121 0,-0.269012 0.1622,-0.43121 0.16615,-0.162199 0.4312,-0.162199 0.269,0 0.4312,0.162199 0.16219,0.162198 0.16219,0.43121 0,0.265055 -0.16219,0.43121 -0.1622,0.162198 -0.4312,0.162198 z m 4.74716,2.254953 q -1.91469,0 -1.91469,-2.848361 0,-2.927483 1.91469,-2.927483 1.91468,0 1.91468,2.927483 0,2.848361 -1.91468,2.848361 z m 0,-0.727915 q 1.06811,0 1.06811,-2.120446 0,-2.199568 -1.06811,-2.199568 -1.06812,0 -1.06812,2.199568 0,2.120446 1.06812,2.120446 z m 0,-1.527038 q -0.26506,0 -0.43121,-0.162198 -0.16219,-0.166155 -0.16219,-0.43121 0,-0.269012 0.16219,-0.43121 0.16615,-0.162199 0.43121,-0.162199 0.269,0 0.43119,0.162199 0.1622,0.162198 0.1622,0.43121 0,0.265055 -0.1622,0.43121 -0.16219,0.162198 -0.43119,0.162198 z"
         id="text70"
         style="font-size:8.10191px;font-family:'Cascadia Code';-inkscape-font-specification:'Cascadia Code';stroke-width:1.66886"
         aria-label="4000" />
      <path
         d="m 304.14945,24.297022 q -0.97715,0 -1.44001,-0.486596 -0.4589,-0.486595 -0.4589,-1.51517 v -0.348134 q 0,-1.610116 0.81495,-2.4488 0.8189,-0.838685 2.49232,-0.921762 l 0.0791,0.751651 q -2.50419,0.106814 -2.50814,2.247042 h 0.0712 q 0.11869,-0.439123 0.47078,-0.676486 0.35604,-0.24132 0.86637,-0.24132 0.73583,0 1.13539,0.454947 0.39956,0.454947 0.39956,1.285719 0,0.89407 -0.51033,1.396489 -0.50637,0.50242 -1.41231,0.50242 z m 0.0277,-0.727915 q 0.50242,0 0.7833,-0.308573 0.28088,-0.312529 0.28088,-0.862421 0,-0.486595 -0.2611,-0.747695 -0.25714,-0.265056 -0.73978,-0.265056 -0.54989,0 -0.8466,0.284836 -0.2967,0.284836 -0.2967,0.807036 0,0.514288 0.28483,0.80308 0.28484,0.288793 0.79517,0.288793 z m 4.68793,0.727915 q -1.91473,0 -1.91473,-2.848363 0,-2.927484 1.91473,-2.927484 1.91473,0 1.91473,2.927484 0,2.848363 -1.91473,2.848363 z m 0,-0.727915 q 1.06814,0 1.06814,-2.120448 0,-2.199569 -1.06814,-2.199569 -1.06813,0 -1.06813,2.199569 0,2.120448 1.06813,2.120448 z m 0,-1.527039 q -0.26505,0 -0.43121,-0.162199 -0.1622,-0.166154 -0.1622,-0.43121 0,-0.269012 0.1622,-0.431211 0.16616,-0.162198 0.43121,-0.162198 0.26901,0 0.43121,0.162198 0.1622,0.162199 0.1622,0.431211 0,0.265056 -0.1622,0.43121 -0.1622,0.162199 -0.43121,0.162199 z m 4.74727,2.254954 q -1.91473,0 -1.91473,-2.848363 0,-2.927484 1.91473,-2.927484 1.91474,0 1.91474,2.927484 0,2.848363 -1.91474,2.848363 z m 0,-0.727915 q 1.06814,0 1.06814,-2.120448 0,-2.199569 -1.06814,-2.199569 -1.06813,0 -1.06813,2.199569 0,2.120448 1.06813,2.120448 z m 0,-1.527039 q -0.26505,0 -0.43121,-0.162199 -0.1622,-0.166154 -0.1622,-0.43121 0,-0.269012 0.1622,-0.431211 0.16616,-0.162198 0.43121,-0.162198 0.26902,0 0.43121,0.162198 0.1622,0.162199 0.1622,0.431211 0,0.265056 -0.1622,0.43121 -0.16219,0.162199 -0.43121,0.162199 z m 4.74728,2.254954 q -1.91474,0 -1.91474,-2.848363 0,-2.927484 1.91474,-2.927484 1.91473,0 1.91473,2.927484 0,2.848363 -1.91473,2.848363 z m 0,-0.727915 q 1.06813,0 1.06813,-2.120448 0,-2.199569 -1.06813,-2.199569 -1.06814,0 -1.06814,2.199569 0,2.120448 1.06814,2.120448 z m 0,-1.527039 q -0.26506,0 -0.43122,-0.162199 -0.16219,-0.166154 -0.16219,-0.43121 0,-0.269012 0.16219,-0.431211 0.16616,-0.162198 0.43122,-0.162198 0.26901,0 0.43121,0.162198 0.16219,0.162199 0.16219,0.431211 0,0.265056 -0.16219,0.43121 -0.1622,0.162199 -0.43121,0.162199 z"
         id="text71"
         style="font-size:8.10201px;font-family:'Cascadia Code';-inkscape-font-specification:'Cascadia Code';stroke-width:1.66888"
         aria-label="6000" />
      <path
         d="m 362.60657,24.297022 q -0.91385,0 -1.41627,-0.423299 -0.49846,-0.427254 -0.49846,-1.198686 0,-0.565716 0.32439,-0.929674 0.32836,-0.363957 0.93363,-0.486595 v -0.05934 q -0.53011,-0.118682 -0.81494,-0.439122 -0.28484,-0.320441 -0.28484,-0.814949 0,-0.676486 0.4589,-1.048355 0.46286,-0.375826 1.29759,-0.375826 0.83868,0 1.29759,0.375826 0.4589,0.371869 0.4589,1.048355 0,0.490552 -0.28484,0.810992 -0.28088,0.320441 -0.80703,0.443079 v 0.05934 q 0.60132,0.126594 0.92572,0.490551 0.32439,0.360002 0.32439,0.925718 0,0.771432 -0.50242,1.198686 -0.49846,0.423299 -1.41231,0.423299 z m 0,-0.727915 q 0.51824,0 0.79912,-0.245276 0.28484,-0.245276 0.28484,-0.688354 0,-0.474727 -0.28484,-0.739783 -0.28088,-0.265056 -0.79912,-0.265056 -0.51824,0 -0.80308,0.265056 -0.28088,0.265056 -0.28088,0.739783 0,0.443078 0.28088,0.688354 0.28484,0.245276 0.80308,0.245276 z m 0,-2.698033 q 0.44308,0 0.6844,-0.201759 0.24132,-0.205715 0.24132,-0.565716 0,-0.411431 -0.24132,-0.63297 -0.24132,-0.221539 -0.6844,-0.221539 -0.44308,0 -0.6844,0.221539 -0.24132,0.221539 -0.24132,0.63297 0,0.360001 0.24132,0.565716 0.24132,0.201759 0.6844,0.201759 z m 4.74727,3.425948 q -1.91473,0 -1.91473,-2.848363 0,-2.927484 1.91473,-2.927484 1.91473,0 1.91473,2.927484 0,2.848363 -1.91473,2.848363 z m 0,-0.727915 q 1.06814,0 1.06814,-2.120448 0,-2.199569 -1.06814,-2.199569 -1.06813,0 -1.06813,2.199569 0,2.120448 1.06813,2.120448 z m 0,-1.527039 q -0.26505,0 -0.43121,-0.162199 -0.1622,-0.166154 -0.1622,-0.43121 0,-0.269012 0.1622,-0.431211 0.16616,-0.162198 0.43121,-0.162198 0.26901,0 0.43121,0.162198 0.1622,0.162199 0.1622,0.431211 0,0.265056 -0.1622,0.43121 -0.1622,0.162199 -0.43121,0.162199 z m 4.74727,2.254954 q -1.91473,0 -1.91473,-2.848363 0,-2.927484 1.91473,-2.927484 1.91474,0 1.91474,2.927484 0,2.848363 -1.91474,2.848363 z m 0,-0.727915 q 1.06814,0 1.06814,-2.120448 0,-2.199569 -1.06814,-2.199569 -1.06813,0 -1.06813,2.199569 0,2.120448 1.06813,2.120448 z m 0,-1.527039 q -0.26505,0 -0.43121,-0.162199 -0.1622,-0.166154 -0.1622,-0.43121 0,-0.269012 0.1622,-0.431211 0.16616,-0.162198 0.43121,-0.162198 0.26902,0 0.43121,0.162198 0.1622,0.162199 0.1622,0.431211 0,0.265056 -0.1622,0.43121 -0.16219,0.162199 -0.43121,0.162199 z m 4.74727,2.254954 q -1.91473,0 -1.91473,-2.848363 0,-2.927484 1.91473,-2.927484 1.91474,0 1.91474,2.927484 0,2.848363 -1.91474,2.848363 z m 0,-0.727915 q 1.06814,0 1.06814,-2.120448 0,-2.199569 -1.06814,-2.199569 -1.06813,0 -1.06813,2.199569 0,2.120448 1.06813,2.120448 z m 0,-1.527039 q -0.26505,0 -0.43121,-0.162199 -0.16219,-0.166154 -0.16219,-0.43121 0,-0.269012 0.16219,-0.431211 0.16616,-0.162198 0.43121,-0.162198 0.26902,0 0.43122,0.162198 0.16219,0.162199 0.16219,0.431211 0,0.265056 -0.16219,0.43121 -0.1622,0.162199 -0.43122,0.162199 z"
         id="text72"
         style="font-size:8.10201px;font-family:'Cascadia Code';-inkscape-font-specification:'Cascadia Code';stroke-width:1.66888"
         aria-label="8000" />
      <path
         d="m 415.19672,24.217901 v -0.751652 h 1.40836 v -4.051005 l -1.32923,0.458903 v -0.799124 l 1.32923,-0.474727 h 0.82286 v 4.865953 h 1.25803 v 0.751652 z m 6.44838,0.07912 q -1.91473,0 -1.91473,-2.848363 0,-2.927484 1.91473,-2.927484 1.91473,0 1.91473,2.927484 0,2.848363 -1.91473,2.848363 z m 0,-0.727915 q 1.06814,0 1.06814,-2.120448 0,-2.199569 -1.06814,-2.199569 -1.06813,0 -1.06813,2.199569 0,2.120448 1.06813,2.120448 z m 0,-1.527039 q -0.26505,0 -0.43121,-0.162199 -0.1622,-0.166154 -0.1622,-0.43121 0,-0.269012 0.1622,-0.431211 0.16616,-0.162198 0.43121,-0.162198 0.26901,0 0.43121,0.162198 0.1622,0.162199 0.1622,0.431211 0,0.265056 -0.1622,0.43121 -0.1622,0.162199 -0.43121,0.162199 z m 4.74727,2.254954 q -1.91473,0 -1.91473,-2.848363 0,-2.927484 1.91473,-2.927484 1.91474,0 1.91474,2.927484 0,2.848363 -1.91474,2.848363 z m 0,-0.727915 q 1.06814,0 1.06814,-2.120448 0,-2.199569 -1.06814,-2.199569 -1.06813,0 -1.06813,2.199569 0,2.120448 1.06813,2.120448 z m 0,-1.527039 q -0.26505,0 -0.43121,-0.162199 -0.1622,-0.166154 -0.1622,-0.43121 0,-0.269012 0.1622,-0.431211 0.16616,-0.162198 0.43121,-0.162198 0.26901,0 0.43121,0.162198 0.1622,0.162199 0.1622,0.431211 0,0.265056 -0.1622,0.43121 -0.1622,0.162199 -0.43121,0.162199 z m 4.74727,2.254954 q -1.91473,0 -1.91473,-2.848363 0,-2.927484 1.91473,-2.927484 1.91474,0 1.91474,2.927484 0,2.848363 -1.91474,2.848363 z m 0,-0.727915 q 1.06814,0 1.06814,-2.120448 0,-2.199569 -1.06814,-2.199569 -1.06813,0 -1.06813,2.199569 0,2.120448 1.06813,2.120448 z m 0,-1.527039 q -0.26505,0 -0.43121,-0.162199 -0.16219,-0.166154 -0.16219,-0.43121 0,-0.269012 0.16219,-0.431211 0.16616,-0.162198 0.43121,-0.162198 0.26902,0 0.43121,0.162198 0.1622,0.162199 0.1622,0.431211 0,0.265056 -0.1622,0.43121 -0.16219,0.162199 -0.43121,0.162199 z m 4.74728,2.254954 q -1.91474,0 -1.91474,-2.848363 0,-2.927484 1.91474,-2.927484 1.91473,0 1.91473,2.927484 0,2.848363 -1.91473,2.848363 z m 0,-0.727915 q 1.06813,0 1.06813,-2.120448 0,-2.199569 -1.06813,-2.199569 -1.06814,0 -1.06814,2.199569 0,2.120448 1.06814,2.120448 z m 0,-1.527039 q -0.26506,0 -0.43121,-0.162199 -0.1622,-0.166154 -0.1622,-0.43121 0,-0.269012 0.1622,-0.431211 0.16615,-0.162198 0.43121,-0.162198 0.26901,0 0.43121,0.162198 0.16219,0.162199 0.16219,0.431211 0,0.265056 -0.16219,0.43121 -0.1622,0.162199 -0.43121,0.162199 z"
         id="text73"
         style="font-size:8.10201px;font-family:'Cascadia Code';-inkscape-font-specification:'Cascadia Code';stroke-width:1.66888"
         aria-label="10000" />
      <path
         d="m 539.82409,24.217901 v -0.901982 q 1.30155,-0.720003 1.94243,-1.495391 0.64484,-0.779343 0.64484,-1.60616 0,-0.965278 -0.95737,-0.965278 -0.32044,0 -0.66857,0.185935 -0.34814,0.185934 -0.59737,0.494507 l -0.54594,-0.54198 q 0.27297,-0.39165 0.77539,-0.629014 0.50242,-0.237363 1.05231,-0.237363 1.77232,0 1.77232,1.693193 0,0.850553 -0.54198,1.633853 -0.53803,0.779344 -1.64177,1.499346 v 0.118682 h 2.42111 v 0.751652 z m 6.51959,0.07912 q -1.91473,0 -1.91473,-2.848363 0,-2.927484 1.91473,-2.927484 1.91473,0 1.91473,2.927484 0,2.848363 -1.91473,2.848363 z m 0,-0.727915 q 1.06814,0 1.06814,-2.120448 0,-2.199569 -1.06814,-2.199569 -1.06814,0 -1.06814,2.199569 0,2.120448 1.06814,2.120448 z m 0,-1.527039 q -0.26506,0 -0.43121,-0.162199 -0.1622,-0.166154 -0.1622,-0.43121 0,-0.269012 0.1622,-0.431211 0.16615,-0.162198 0.43121,-0.162198 0.26901,0 0.43121,0.162198 0.1622,0.162199 0.1622,0.431211 0,0.265056 -0.1622,0.43121 -0.1622,0.162199 -0.43121,0.162199 z m 4.74727,2.254954 q -1.91473,0 -1.91473,-2.848363 0,-2.927484 1.91473,-2.927484 1.91473,0 1.91473,2.927484 0,2.848363 -1.91473,2.848363 z m 0,-0.727915 q 1.06814,0 1.06814,-2.120448 0,-2.199569 -1.06814,-2.199569 -1.06814,0 -1.06814,2.199569 0,2.120448 1.06814,2.120448 z m 0,-1.527039 q -0.26506,0 -0.43121,-0.162199 -0.1622,-0.166154 -0.1622,-0.43121 0,-0.269012 0.1622,-0.431211 0.16615,-0.162198 0.43121,-0.162198 0.26901,0 0.43121,0.162198 0.1622,0.162199 0.1622,0.431211 0,0.265056 -0.1622,0.43121 -0.1622,0.162199 -0.43121,0.162199 z m 4.74727,2.254954 q -1.91473,0 -1.91473,-2.848363 0,-2.927484 1.91473,-2.927484 1.91474,0 1.91474,2.927484 0,2.848363 -1.91474,2.848363 z m 0,-0.727915 q 1.06814,0 1.06814,-2.120448 0,-2.199569 -1.06814,-2.199569 -1.06813,0 -1.06813,2.199569 0,2.120448 1.06813,2.120448 z m 0,-1.527039 q -0.26505,0 -0.43121,-0.162199 -0.1622,-0.166154 -0.1622,-0.43121 0,-0.269012 0.1622,-0.431211 0.16616,-0.162198 0.43121,-0.162198 0.26901,0 0.43121,0.162198 0.1622,0.162199 0.1622,0.431211 0,0.265056 -0.1622,0.43121 -0.1622,0.162199 -0.43121,0.162199 z m 4.74727,2.254954 q -1.91473,0 -1.91473,-2.848363 0,-2.927484 1.91473,-2.927484 1.91474,0 1.91474,2.927484 0,2.848363 -1.91474,2.848363 z m 0,-0.727915 q 1.06814,0 1.06814,-2.120448 0,-2.199569 -1.06814,-2.199569 -1.06813,0 -1.06813,2.199569 0,2.120448 1.06813,2.120448 z m 0,-1.527039 q -0.26505,0 -0.43121,-0.162199 -0.1622,-0.166154 -0.1622,-0.43121 0,-0.269012 0.1622,-0.431211 0.16616,-0.162198 0.43121,-0.162198 0.26902,0 0.43121,0.162198 0.1622,0.162199 0.1622,0.431211 0,0.265056 -0.1622,0.43121 -0.16219,0.162199 -0.43121,0.162199 z"
         id="text74"
         style="font-size:8.10201px;font-family:'Cascadia Code';-inkscape-font-specification:'Cascadia Code';stroke-width:1.66888"
         aria-label="20000" />
      <path
         d="m 711.01363,24.297022 q -0.43516,0 -0.79912,-0.05143 -0.36,-0.05143 -0.64088,-0.138462 l 0.0989,-0.755608 q 0.24132,0.06725 0.54198,0.142419 0.30462,0.07517 0.76747,0.07517 0.61715,0 0.95737,-0.245276 0.34022,-0.245276 0.34022,-0.688354 0,-0.474727 -0.43516,-0.731871 -0.43517,-0.257144 -1.2343,-0.257144 h -0.12659 l -0.0949,-0.514288 q 0.93363,-0.126594 1.35297,-0.423298 0.41934,-0.300661 0.41934,-0.731871 0,-0.344177 -0.2255,-0.534068 -0.22153,-0.193847 -0.63692,-0.193847 -0.30066,0 -0.64088,0.15033 -0.33627,0.15033 -0.63693,0.450991 l -0.54593,-0.54198 q 0.36395,-0.41143 0.84264,-0.597365 0.47868,-0.189891 1.06813,-0.189891 0.76748,0 1.18682,0.328353 0.41934,0.324397 0.41934,0.929674 0,0.506375 -0.32439,0.882201 -0.3244,0.37187 -0.8466,0.510332 v 0.08308 q 0.58154,0.102858 0.93363,0.478683 0.35604,0.37187 0.35604,0.981103 0,0.751651 -0.54989,1.167037 -0.54593,0.415387 -1.54682,0.415387 z m 5.0875,0 q -1.91474,0 -1.91474,-2.848363 0,-2.927484 1.91474,-2.927484 1.91473,0 1.91473,2.927484 0,2.848363 -1.91473,2.848363 z m 0,-0.727915 q 1.06813,0 1.06813,-2.120448 0,-2.199569 -1.06813,-2.199569 -1.06814,0 -1.06814,2.199569 0,2.120448 1.06814,2.120448 z m 0,-1.527039 q -0.26506,0 -0.43121,-0.162199 -0.1622,-0.166154 -0.1622,-0.43121 0,-0.269012 0.1622,-0.431211 0.16615,-0.162198 0.43121,-0.162198 0.26901,0 0.43121,0.162198 0.16219,0.162199 0.16219,0.431211 0,0.265056 -0.16219,0.43121 -0.1622,0.162199 -0.43121,0.162199 z m 4.74727,2.254954 q -1.91474,0 -1.91474,-2.848363 0,-2.927484 1.91474,-2.927484 1.91473,0 1.91473,2.927484 0,2.848363 -1.91473,2.848363 z m 0,-0.727915 q 1.06813,0 1.06813,-2.120448 0,-2.199569 -1.06813,-2.199569 -1.06814,0 -1.06814,2.199569 0,2.120448 1.06814,2.120448 z m 0,-1.527039 q -0.26506,0 -0.43121,-0.162199 -0.1622,-0.166154 -0.1622,-0.43121 0,-0.269012 0.1622,-0.431211 0.16615,-0.162198 0.43121,-0.162198 0.26901,0 0.43121,0.162198 0.1622,0.162199 0.1622,0.431211 0,0.265056 -0.1622,0.43121 -0.1622,0.162199 -0.43121,0.162199 z m 4.74727,2.254954 q -1.91473,0 -1.91473,-2.848363 0,-2.927484 1.91473,-2.927484 1.91473,0 1.91473,2.927484 0,2.848363 -1.91473,2.848363 z m 0,-0.727915 q 1.06813,0 1.06813,-2.120448 0,-2.199569 -1.06813,-2.199569 -1.06814,0 -1.06814,2.199569 0,2.120448 1.06814,2.120448 z m 0,-1.527039 q -0.26506,0 -0.43121,-0.162199 -0.1622,-0.166154 -0.1622,-0.43121 0,-0.269012 0.1622,-0.431211 0.16615,-0.162198 0.43121,-0.162198 0.26901,0 0.43121,0.162198 0.1622,0.162199 0.1622,0.431211 0,0.265056 -0.1622,0.43121 -0.1622,0.162199 -0.43121,0.162199 z m 4.74727,2.254954 q -1.91473,0 -1.91473,-2.848363 0,-2.927484 1.91473,-2.927484 1.91473,0 1.91473,2.927484 0,2.848363 -1.91473,2.848363 z m 0,-0.727915 q 1.06814,0 1.06814,-2.120448 0,-2.199569 -1.06814,-2.199569 -1.06814,0 -1.06814,2.199569 0,2.120448 1.06814,2.120448 z m 0,-1.527039 q -0.26506,0 -0.43121,-0.162199 -0.1622,-0.166154 -0.1622,-0.43121 0,-0.269012 0.1622,-0.431211 0.16615,-0.162198 0.43121,-0.162198 0.26901,0 0.43121,0.162198 0.1622,0.162199 0.1622,0.431211 0,0.265056 -0.1622,0.43121 -0.1622,0.162199 -0.43121,0.162199 z"
         id="text75"
         style="font-size:8.10201px;font-family:'Cascadia Code';-inkscape-font-specification:'Cascadia Code';stroke-width:1.66888"
         aria-label="30000" />
      <path
         d="m 878.31905,22.959874 0.79121,-4.043093 h 0.85451 l -0.65275,3.307266 h 1.79209 v -3.623751 h 0.82286 v 3.623751 h 0.53012 v 0.735827 h -0.53012 v 1.258027 h -0.82286 v -1.258027 z m 6.82816,1.337148 q -1.91474,0 -1.91474,-2.848363 0,-2.927484 1.91474,-2.927484 1.91473,0 1.91473,2.927484 0,2.848363 -1.91473,2.848363 z m 0,-0.727915 q 1.06813,0 1.06813,-2.120448 0,-2.199569 -1.06813,-2.199569 -1.06814,0 -1.06814,2.199569 0,2.120448 1.06814,2.120448 z m 0,-1.527039 q -0.26506,0 -0.43121,-0.162199 -0.1622,-0.166154 -0.1622,-0.43121 0,-0.269012 0.1622,-0.431211 0.16615,-0.162198 0.43121,-0.162198 0.26901,0 0.43121,0.162198 0.1622,0.162199 0.1622,0.431211 0,0.265056 -0.1622,0.43121 -0.1622,0.162199 -0.43121,0.162199 z m 4.74727,2.254954 q -1.91473,0 -1.91473,-2.848363 0,-2.927484 1.91473,-2.927484 1.91473,0 1.91473,2.927484 0,2.848363 -1.91473,2.848363 z m 0,-0.727915 q 1.06813,0 1.06813,-2.120448 0,-2.199569 -1.06813,-2.199569 -1.06814,0 -1.06814,2.199569 0,2.120448 1.06814,2.120448 z m 0,-1.527039 q -0.26506,0 -0.43121,-0.162199 -0.1622,-0.166154 -0.1622,-0.43121 0,-0.269012 0.1622,-0.431211 0.16615,-0.162198 0.43121,-0.162198 0.26901,0 0.43121,0.162198 0.1622,0.162199 0.1622,0.431211 0,0.265056 -0.1622,0.43121 -0.1622,0.162199 -0.43121,0.162199 z m 4.74727,2.254954 q -1.91473,0 -1.91473,-2.848363 0,-2.927484 1.91473,-2.927484 1.91473,0 1.91473,2.927484 0,2.848363 -1.91473,2.848363 z m 0,-0.727915 q 1.06814,0 1.06814,-2.120448 0,-2.199569 -1.06814,-2.199569 -1.06814,0 -1.06814,2.199569 0,2.120448 1.06814,2.120448 z m 0,-1.527039 q -0.26506,0 -0.43121,-0.162199 -0.1622,-0.166154 -0.1622,-0.43121 0,-0.269012 0.1622,-0.431211 0.16615,-0.162198 0.43121,-0.162198 0.26901,0 0.43121,0.162198 0.1622,0.162199 0.1622,0.431211 0,0.265056 -0.1622,0.43121 -0.1622,0.162199 -0.43121,0.162199 z m 4.74727,2.254954 q -1.91473,0 -1.91473,-2.848363 0,-2.927484 1.91473,-2.927484 1.91473,0 1.91473,2.927484 0,2.848363 -1.91473,2.848363 z m 0,-0.727915 q 1.06814,0 1.06814,-2.120448 0,-2.199569 -1.06814,-2.199569 -1.06813,0 -1.06813,2.199569 0,2.120448 1.06813,2.120448 z m 0,-1.527039 q -0.26505,0 -0.43121,-0.162199 -0.1622,-0.166154 -0.1622,-0.43121 0,-0.269012 0.1622,-0.431211 0.16616,-0.162198 0.43121,-0.162198 0.26901,0 0.43121,0.162198 0.1622,0.162199 0.1622,0.431211 0,0.265056 -0.1622,0.43121 -0.1622,0.162199 -0.43121,0.162199 z m 4.32793,1.424181 v -1.689237 h -1.55869 v -0.735827 h 1.55869 v -1.681326 h 0.83869 v 1.681326 h 1.55868 v 0.735827 h -1.55868 v 1.689237 z"
         id="text76"
         style="font-size:8.10201px;font-family:'Cascadia Code';-inkscape-font-specification:'Cascadia Code';stroke-width:1.66888"
         aria-label="40000+" />
    </g>
  </g>
</svg>
