<?xml version="1.0" encoding="UTF-8" standalone="no"?>
<svg
   viewBox="10.6 0 896.2 28.39"
   version="1.1"
   id="svg66"
   sodipodi:docname="alt_legend_m.svg"
   inkscape:version="1.3.2 (091e20e, 2023-11-25, custom)"
   xmlns:inkscape="http://www.inkscape.org/namespaces/inkscape"
   xmlns:sodipodi="http://sodipodi.sourceforge.net/DTD/sodipodi-0.dtd"
   xmlns="http://www.w3.org/2000/svg"
   xmlns:svg="http://www.w3.org/2000/svg">
  <sodipodi:namedview
     id="namedview66"
     pagecolor="#505050"
     bordercolor="#eeeeee"
     borderopacity="1"
     inkscape:showpageshadow="0"
     inkscape:pageopacity="0"
     inkscape:pagecheckerboard="0"
     inkscape:deskcolor="#505050"
     showgrid="false"
     inkscape:zoom="2.8284271"
     inkscape:cx="260.03852"
     inkscape:cy="48.967145"
     inkscape:window-width="1920"
     inkscape:window-height="1009"
     inkscape:window-x="-8"
     inkscape:window-y="-8"
     inkscape:window-maximized="1"
     inkscape:current-layer="layer1" />
  <defs
     id="defs10">
    <style
       id="style1">.cls-1{fill:url(#linear-gradient);}.cls-2{fill:none;stroke:#000;stroke-miterlimit:10;}</style>
    <linearGradient
       id="linear-gradient"
       x1="77.89"
       y1="6.58"
       x2="906.28"
       y2="6.58"
       gradientUnits="userSpaceOnUse">
      <stop
         offset="0.033"
         stop-color="hsl(23, 88%, 51%)"
         id="stop1" />
      <stop
         offset="0.066"
         stop-color="hsl(26, 88%, 52%)"
         id="stop2" />
      <stop
         offset="0.126"
         stop-color="hsl(32, 88%, 54%)"
         id="stop3" />
      <stop
         offset="0.19"
         stop-color="hsl(43, 88%, 53%)"
         id="stop4" />
      <stop
         offset="0.253"
         stop-color="hsl(54, 88%, 45%)"
         id="stop5" />
      <stop
         offset="0.316"
         stop-color="hsl(72, 88%, 42%)"
         id="stop6" />
      <stop
         offset="0.38"
         stop-color="hsl(112, 88%, 41%)"
         id="stop7" />
      <stop
         offset="0.59"
         stop-color="hsl(189, 88%, 44%)"
         id="stop8" />
      <stop
         offset="0.79"
         stop-color="hsl(244, 88%, 57%)"
         id="stop9" />
      <stop
         offset="1"
         stop-color="hsl(300, 88%, 43%)"
         id="stop10" />
    </linearGradient>
  </defs>
  <title
     id="title10">Altitude Legend (ft)</title>
  <g
     id="Layer_2"
     data-name="Layer 2">
    <g
       id="REDESIGN"
       style="display:inline">
      <rect
         class="cls-1"
         x="77.889999"
         width="828.40002"
         height="13.17"
         id="rect10"
         y="0" />
      <polyline
         class="cls-2"
         points="78 0 78 13.4 906.28 13.4 906.28 0"
         id="polyline10" />
      <line
         class="cls-2"
         x1="720.95001"
         x2="720.95001"
         y2="14.19"
         id="line16"
         y1="0" />
      <line
         class="cls-2"
         x1="551.12"
         x2="551.12"
         y2="14.19"
         id="line21"
         y1="0" />
      <line
         class="cls-2"
         x1="426.53"
         x2="426.53"
         y2="14.19"
         id="line26"
         y1="0" />
      <line
         class="cls-2"
         x1="369.76001"
         x2="369.76001"
         y2="14.19"
         id="line31"
         y1="0" />
      <line
         class="cls-2"
         x1="311.41"
         x2="311.41"
         y2="14.19"
         id="line35"
         y1="0" />
      <line
         class="cls-2"
         x1="253.06"
         x2="253.06"
         y2="14.19"
         id="line39"
         y1="0" />
      <line
         class="cls-2"
         x1="194.7"
         x2="194.7"
         y2="14.19"
         id="line43"
         y1="0" />
      <line
         class="cls-2"
         x1="136.35001"
         x2="136.35001"
         y2="14.19"
         id="line47"
         y1="0" />
      <line
         class="cls-2"
         x1="106.39"
         x2="106.39"
         y2="14.19"
         id="line51"
         y1="0" />
    </g>
  </g>
  <g
     inkscape:groupmode="layer"
     id="layer1"
     inkscape:label="Layer_1">
    <path
       d="m 13.53033,10.908815 1.621984,-5.617604 h 1.147258 l 1.621984,5.617604 H 17.090784 L 16.72287,9.5400188 h -1.993854 l -0.367914,1.3687962 z m 1.400445,-2.1204475 h 1.590336 L 15.761548,5.9716532 h -0.07121 z m 3.801773,2.1204475 V 5.291211 h 0.822861 v 4.865953 h 2.895835 v 0.751651 z m 6.076508,0 V 6.0428622 H 23.163335 V 5.291211 h 4.114302 v 0.7516512 h -1.645721 v 4.8659528 z m 3.449684,0 v -0.751651 h 1.293631 V 6.0428622 H 28.25874 V 5.291211 h 3.418035 v 0.7516512 h -1.301543 v 4.1143018 h 1.301543 v 0.751651 z m 6.044859,0 V 6.0428622 H 32.657878 V 5.291211 h 4.114302 v 0.7516512 h -1.645721 v 4.8659528 z m 5.142878,0.07912 q -1.803963,0 -1.803963,-1.8830847 V 5.291211 h 0.822861 v 3.8136413 q 0,0.5617604 0.241319,0.8465967 0.24132,0.284836 0.755608,0.284836 0.996927,0 0.996927,-1.1314327 V 5.291211 h 0.82286 v 3.8136413 q 0,0.9415417 -0.466815,1.4123127 -0.466815,0.470772 -1.368797,0.470772 z m 2.943308,-0.07912 V 5.291211 h 1.360884 q 2.571439,0 2.571439,2.8879234 0,2.7296806 -2.571439,2.7296806 z m 0.82286,-0.751651 h 0.538024 q 1.740666,0 1.740666,-1.9780296 0,-2.1362722 -1.740666,-2.1362722 h -0.538024 z m 4.003532,0.751651 V 5.291211 h 3.718696 v 0.7516512 h -2.895836 v 1.6773693 h 2.183745 v 0.7516513 h -2.183745 v 1.6852812 h 2.895836 v 0.751651 z m 12.619832,0.791212 q -1.28572,0 -1.99781,-0.945498 -0.708135,-0.9494542 -0.708135,-2.6782522 0,-1.7050616 0.708135,-2.6386916 0.71209,-0.9375861 1.99781,-0.9375861 h 0.18989 V 5.2120898 H 59.91513 q -0.937586,0 -1.447918,0.7516513 -0.506376,0.7516513 -0.506376,2.1125357 0,1.3846208 0.506376,2.1481402 0.510332,0.76352 1.447918,0.76352 h 0.110769 v 0.71209 z m 4.454524,-0.791212 V 7.7044072 q 0,-0.4351665 -0.324397,-0.4351665 -0.41143,0 -0.41143,0.5696725 V 10.908815 H 62.842615 V 7.625286 q 0,-0.3560453 -0.332309,-0.3560453 -0.403518,0 -0.403518,0.5696725 V 10.908815 H 61.268103 V 6.7153924 h 0.743739 l 0.05539,0.5221998 h 0.0633 q 0.04747,-0.601321 0.720003,-0.601321 0.265056,0 0.439123,0.1503302 0.178022,0.1503303 0.237363,0.4509908 h 0.06725 q 0.01978,-0.2452757 0.193847,-0.4232984 0.178023,-0.1780226 0.510332,-0.1780226 0.435166,0 0.632969,0.2334075 0.197803,0.2334075 0.197803,0.7556073 v 3.283529 z m 2.080884,0.791212 v -0.71209 h 0.11077 q 0.937586,0 1.443962,-0.76352 0.510331,-0.7635194 0.510331,-2.1481402 0,-1.3608844 -0.510331,-2.1125357 -0.506376,-0.7516513 -1.443962,-0.7516513 h -0.11077 V 4.4999991 h 0.189891 q 1.289676,0 1.99781,0.9375861 0.708135,0.93363 0.708135,2.6386916 0,1.728798 -0.708135,2.6782522 -0.708134,0.945498 -1.99781,0.945498 z"
       id="text66"
       style="font-size:8.10201px;font-family:'Cascadia Code';-inkscape-font-specification:'Cascadia Code';stroke-width:1.66888"
       inkscape:label="text65"
       aria-label="ALTITUDE (m)" />
    <path
       d="m 78.098253,23.60327 q -1.914733,0 -1.914733,-2.848363 0,-2.927484 1.914733,-2.927484 1.914732,0 1.914732,2.927484 0,2.848363 -1.914732,2.848363 z m 0,-0.727915 q 1.068136,0 1.068136,-2.120448 0,-2.199569 -1.068136,-2.199569 -1.068136,0 -1.068136,2.199569 0,2.120448 1.068136,2.120448 z m 0,-1.527039 q -0.265056,0 -0.431211,-0.162198 -0.162198,-0.166155 -0.162198,-0.431211 0,-0.269012 0.162198,-0.43121 0.166155,-0.162199 0.431211,-0.162199 0.269012,0 0.43121,0.162199 0.162199,0.162198 0.162199,0.43121 0,0.265056 -0.162199,0.431211 -0.162198,0.162198 -0.43121,0.162198 z"
       id="text66-0"
       style="font-size:8.10201px;font-family:'Cascadia Code';-inkscape-font-specification:'Cascadia Code';stroke-width:1.66888"
       inkscape:label="text67"
       aria-label="0" />
    <path
       d="m 99.818191,23.523726 v -0.751652 h 1.408359 v -4.051005 l -1.329238,0.458903 v -0.799124 l 1.329238,-0.474727 h 0.82286 v 4.865953 h 1.25802 v 0.751652 z m 6.503759,0.07912 q -0.90989,0 -1.40835,-0.431211 -0.49847,-0.435166 -0.49847,-1.222422 h 0.8466 q 0,0.439122 0.27692,0.684398 0.27693,0.24132 0.79121,0.24132 0.50638,0 0.7833,-0.304617 0.27693,-0.304616 0.27693,-0.858465 0,-0.54198 -0.30066,-0.838684 -0.30066,-0.300661 -0.85451,-0.300661 -0.55385,0 -1.03649,0.2611 h -0.44308 l 0.0791,-2.927484 h 3.03035 v 0.735827 h -2.20749 l -0.0435,1.360885 q 0.22549,-0.08308 0.44703,-0.11077 0.2255,-0.03165 0.45099,-0.03165 0.81495,0 1.26199,0.48264 0.44703,0.482639 0.44703,1.368796 0,0.901982 -0.49846,1.396489 -0.49451,0.494508 -1.40045,0.494508 z m 4.69189,0 q -1.91473,0 -1.91473,-2.848363 0,-2.927484 1.91473,-2.927484 1.91473,0 1.91473,2.927484 0,2.848363 -1.91473,2.848363 z m 0,-0.727915 q 1.06814,0 1.06814,-2.120448 0,-2.199569 -1.06814,-2.199569 -1.06814,0 -1.06814,2.199569 0,2.120448 1.06814,2.120448 z m 0,-1.527039 q -0.26506,0 -0.43121,-0.162199 -0.1622,-0.166154 -0.1622,-0.43121 0,-0.269012 0.1622,-0.431211 0.16615,-0.162198 0.43121,-0.162198 0.26901,0 0.43121,0.162198 0.1622,0.162199 0.1622,0.431211 0,0.265056 -0.1622,0.43121 -0.1622,0.162199 -0.43121,0.162199 z"
       id="text67"
       style="font-size:8.10201px;font-family:'Cascadia Code';-inkscape-font-specification:'Cascadia Code';stroke-width:1.66888"
       aria-label="150" />
    <path
       d="m 131.05411,23.602847 q -0.43517,0 -0.79913,-0.05143 -0.36,-0.05143 -0.64088,-0.138462 l 0.0989,-0.755608 q 0.24132,0.06725 0.54198,0.142419 0.30462,0.07517 0.76748,0.07517 0.61714,0 0.95736,-0.245276 0.34022,-0.245276 0.34022,-0.688354 0,-0.474727 -0.43516,-0.731871 -0.43517,-0.257144 -1.23429,-0.257144 h -0.1266 l -0.0949,-0.514288 q 0.93363,-0.126594 1.35297,-0.423298 0.41934,-0.300661 0.41934,-0.731871 0,-0.344177 -0.22549,-0.534068 -0.22154,-0.193847 -0.63693,-0.193847 -0.30066,0 -0.64088,0.15033 -0.33626,0.15033 -0.63693,0.450991 l -0.54593,-0.54198 q 0.36396,-0.41143 0.84264,-0.597365 0.47868,-0.189891 1.06814,-0.189891 0.76747,0 1.18681,0.328353 0.41935,0.324397 0.41935,0.929674 0,0.506375 -0.3244,0.882201 -0.3244,0.37187 -0.8466,0.510332 v 0.08308 q 0.58154,0.102858 0.93363,0.478683 0.35605,0.37187 0.35605,0.981103 0,0.751651 -0.5499,1.167037 -0.54593,0.415387 -1.54681,0.415387 z m 5.08749,0 q -1.91473,0 -1.91473,-2.848363 0,-2.927484 1.91473,-2.927484 1.91473,0 1.91473,2.927484 0,2.848363 -1.91473,2.848363 z m 0,-0.727915 q 1.06813,0 1.06813,-2.120448 0,-2.199569 -1.06813,-2.199569 -1.06814,0 -1.06814,2.199569 0,2.120448 1.06814,2.120448 z m 0,-1.527039 q -0.26506,0 -0.43121,-0.162199 -0.1622,-0.166154 -0.1622,-0.43121 0,-0.269012 0.1622,-0.431211 0.16615,-0.162198 0.43121,-0.162198 0.26901,0 0.43121,0.162198 0.1622,0.162199 0.1622,0.431211 0,0.265056 -0.1622,0.43121 -0.1622,0.162199 -0.43121,0.162199 z m 4.74727,2.254954 q -1.91473,0 -1.91473,-2.848363 0,-2.927484 1.91473,-2.927484 1.91473,0 1.91473,2.927484 0,2.848363 -1.91473,2.848363 z m 0,-0.727915 q 1.06814,0 1.06814,-2.120448 0,-2.199569 -1.06814,-2.199569 -1.06814,0 -1.06814,2.199569 0,2.120448 1.06814,2.120448 z m 0,-1.527039 q -0.26506,0 -0.43121,-0.162199 -0.1622,-0.166154 -0.1622,-0.43121 0,-0.269012 0.1622,-0.431211 0.16615,-0.162198 0.43121,-0.162198 0.26901,0 0.43121,0.162198 0.1622,0.162199 0.1622,0.431211 0,0.265056 -0.1622,0.43121 -0.1622,0.162199 -0.43121,0.162199 z"
       id="text68"
       style="font-size:8.10201px;font-family:'Cascadia Code';-inkscape-font-specification:'Cascadia Code';stroke-width:1.66888"
       aria-label="300" />
    <path
       d="m 189.89553,23.602847 q -0.97714,0 -1.44,-0.486596 -0.4589,-0.486595 -0.4589,-1.51517 v -0.348134 q 0,-1.610116 0.81494,-2.4488 0.81891,-0.838685 2.49232,-0.921762 l 0.0791,0.751651 q -2.50418,0.106814 -2.50814,2.247042 h 0.0712 q 0.11868,-0.439123 0.47077,-0.676486 0.35605,-0.24132 0.86638,-0.24132 0.73582,0 1.13539,0.454947 0.39956,0.454947 0.39956,1.285719 0,0.89407 -0.51033,1.396489 -0.50638,0.50242 -1.41232,0.50242 z m 0.0277,-0.727915 q 0.50242,0 0.7833,-0.308573 0.28088,-0.312529 0.28088,-0.862421 0,-0.486595 -0.2611,-0.747695 -0.25715,-0.265056 -0.73979,-0.265056 -0.54989,0 -0.84659,0.284836 -0.29671,0.284836 -0.29671,0.807036 0,0.514288 0.28484,0.80308 0.28483,0.288793 0.79517,0.288793 z m 4.68793,0.727915 q -1.91474,0 -1.91474,-2.848363 0,-2.927484 1.91474,-2.927484 1.91473,0 1.91473,2.927484 0,2.848363 -1.91473,2.848363 z m 0,-0.727915 q 1.06813,0 1.06813,-2.120448 0,-2.199569 -1.06813,-2.199569 -1.06814,0 -1.06814,2.199569 0,2.120448 1.06814,2.120448 z m 0,-1.527039 q -0.26506,0 -0.43121,-0.162199 -0.1622,-0.166154 -0.1622,-0.43121 0,-0.269012 0.1622,-0.431211 0.16615,-0.162198 0.43121,-0.162198 0.26901,0 0.43121,0.162198 0.1622,0.162199 0.1622,0.431211 0,0.265056 -0.1622,0.43121 -0.1622,0.162199 -0.43121,0.162199 z m 4.74727,2.254954 q -1.91473,0 -1.91473,-2.848363 0,-2.927484 1.91473,-2.927484 1.91473,0 1.91473,2.927484 0,2.848363 -1.91473,2.848363 z m 0,-0.727915 q 1.06813,0 1.06813,-2.120448 0,-2.199569 -1.06813,-2.199569 -1.06814,0 -1.06814,2.199569 0,2.120448 1.06814,2.120448 z m 0,-1.527039 q -0.26506,0 -0.43121,-0.162199 -0.1622,-0.166154 -0.1622,-0.43121 0,-0.269012 0.1622,-0.431211 0.16615,-0.162198 0.43121,-0.162198 0.26901,0 0.43121,0.162198 0.1622,0.162199 0.1622,0.431211 0,0.265056 -0.1622,0.43121 -0.1622,0.162199 -0.43121,0.162199 z"
       id="text69"
       style="font-size:8.10201px;font-family:'Cascadia Code';-inkscape-font-specification:'Cascadia Code';stroke-width:1.66888"
       aria-label="600" />
    <path
       d="m 244.19083,23.523445 v -0.751642 h 1.40834 v -4.050955 l -1.32922,0.458898 v -0.799115 l 1.32922,-0.474721 h 0.82285 v 4.865893 h 1.25801 v 0.751642 z m 4.67601,0 v -0.90197 q 1.30152,-0.719994 1.9424,-1.495372 0.64483,-0.779334 0.64483,-1.606141 0,-0.965266 -0.95736,-0.965266 -0.32043,0 -0.66856,0.185932 -0.34813,0.185933 -0.59736,0.494502 l -0.54593,-0.541974 q 0.27297,-0.391645 0.77538,-0.629005 0.50241,-0.237361 1.0523,-0.237361 1.77229,0 1.77229,1.693172 0,0.850543 -0.54197,1.633833 -0.53802,0.779334 -1.64175,1.499328 v 0.11868 h 2.42108 v 0.751642 z m 6.5195,0.07912 q -1.91471,0 -1.91471,-2.848327 0,-2.927448 1.91471,-2.927448 1.91471,0 1.91471,2.927448 0,2.848327 -1.91471,2.848327 z m 0,-0.727906 q 1.06813,0 1.06813,-2.120421 0,-2.199542 -1.06813,-2.199542 -1.06812,0 -1.06812,2.199542 0,2.120421 1.06812,2.120421 z m 0,-1.52702 q -0.26505,0 -0.4312,-0.162196 -0.1622,-0.166153 -0.1622,-0.431205 0,-0.269009 0.1622,-0.431205 0.16615,-0.162197 0.4312,-0.162197 0.26901,0 0.43121,0.162197 0.16219,0.162196 0.16219,0.431205 0,0.265052 -0.16219,0.431205 -0.1622,0.162196 -0.43121,0.162196 z m 4.74722,2.254926 q -1.91471,0 -1.91471,-2.848327 0,-2.927448 1.91471,-2.927448 1.9147,0 1.9147,2.927448 0,2.848327 -1.9147,2.848327 z m 0,-0.727906 q 1.06812,0 1.06812,-2.120421 0,-2.199542 -1.06812,-2.199542 -1.06813,0 -1.06813,2.199542 0,2.120421 1.06813,2.120421 z m 0,-1.52702 q -0.26506,0 -0.43121,-0.162196 -0.1622,-0.166153 -0.1622,-0.431205 0,-0.269009 0.1622,-0.431205 0.16615,-0.162197 0.43121,-0.162197 0.269,0 0.4312,0.162197 0.1622,0.162196 0.1622,0.431205 0,0.265052 -0.1622,0.431205 -0.1622,0.162196 -0.4312,0.162196 z"
       id="text70"
       style="font-size:8.10191px;font-family:'Cascadia Code';-inkscape-font-specification:'Cascadia Code';stroke-width:1.66886"
       transform="scale(0.99998808,1.0000119)"
       aria-label="1200" />
    <path
       d="m 302.4405,23.523726 v -0.751652 h 1.40836 v -4.051005 l -1.32923,0.458903 v -0.799124 l 1.32923,-0.474727 h 0.82286 v 4.865953 h 1.25803 v 0.751652 z m 6.44838,0.07912 q -0.91385,0 -1.41627,-0.423299 -0.49846,-0.427254 -0.49846,-1.198686 0,-0.565716 0.3244,-0.929674 0.32835,-0.363957 0.93363,-0.486595 v -0.05934 q -0.53012,-0.118682 -0.81495,-0.439122 -0.28484,-0.320441 -0.28484,-0.814949 0,-0.676486 0.4589,-1.048355 0.46286,-0.375826 1.29759,-0.375826 0.83869,0 1.29759,0.375826 0.4589,0.371869 0.4589,1.048355 0,0.490552 -0.28483,0.810992 -0.28088,0.320441 -0.80704,0.443079 v 0.05934 q 0.60132,0.126594 0.92572,0.490551 0.32439,0.360002 0.32439,0.925718 0,0.771432 -0.50241,1.198686 -0.49847,0.423299 -1.41232,0.423299 z m 0,-0.727915 q 0.51825,0 0.79913,-0.245276 0.28483,-0.245276 0.28483,-0.688354 0,-0.474727 -0.28483,-0.739783 -0.28088,-0.265056 -0.79913,-0.265056 -0.51824,0 -0.80308,0.265056 -0.28088,0.265056 -0.28088,0.739783 0,0.443078 0.28088,0.688354 0.28484,0.245276 0.80308,0.245276 z m 0,-2.698033 q 0.44308,0 0.6844,-0.201759 0.24132,-0.205715 0.24132,-0.565716 0,-0.411431 -0.24132,-0.63297 -0.24132,-0.221539 -0.6844,-0.221539 -0.44308,0 -0.6844,0.221539 -0.24132,0.221539 -0.24132,0.63297 0,0.360001 0.24132,0.565716 0.24132,0.201759 0.6844,0.201759 z m 4.74727,3.425948 q -1.91473,0 -1.91473,-2.848363 0,-2.927484 1.91473,-2.927484 1.91474,0 1.91474,2.927484 0,2.848363 -1.91474,2.848363 z m 0,-0.727915 q 1.06814,0 1.06814,-2.120448 0,-2.199569 -1.06814,-2.199569 -1.06813,0 -1.06813,2.199569 0,2.120448 1.06813,2.120448 z m 0,-1.527039 q -0.26505,0 -0.43121,-0.162199 -0.1622,-0.166154 -0.1622,-0.43121 0,-0.269012 0.1622,-0.431211 0.16616,-0.162198 0.43121,-0.162198 0.26902,0 0.43121,0.162198 0.1622,0.162199 0.1622,0.431211 0,0.265056 -0.1622,0.43121 -0.16219,0.162199 -0.43121,0.162199 z m 4.74728,2.254954 q -1.91474,0 -1.91474,-2.848363 0,-2.927484 1.91474,-2.927484 1.91473,0 1.91473,2.927484 0,2.848363 -1.91473,2.848363 z m 0,-0.727915 q 1.06813,0 1.06813,-2.120448 0,-2.199569 -1.06813,-2.199569 -1.06814,0 -1.06814,2.199569 0,2.120448 1.06814,2.120448 z m 0,-1.527039 q -0.26506,0 -0.43122,-0.162199 -0.16219,-0.166154 -0.16219,-0.43121 0,-0.269012 0.16219,-0.431211 0.16616,-0.162198 0.43122,-0.162198 0.26901,0 0.43121,0.162198 0.16219,0.162199 0.16219,0.431211 0,0.265056 -0.16219,0.43121 -0.1622,0.162199 -0.43121,0.162199 z"
       id="text71"
       style="font-size:8.10201px;font-family:'Cascadia Code';-inkscape-font-specification:'Cascadia Code';stroke-width:1.66888"
       aria-label="1800" />
    <path
       d="m 360.85807,23.523726 v -0.901982 q 1.30154,-0.720003 1.94242,-1.495391 0.64484,-0.779343 0.64484,-1.60616 0,-0.965278 -0.95737,-0.965278 -0.32044,0 -0.66857,0.185935 -0.34814,0.185934 -0.59737,0.494507 l -0.54593,-0.54198 q 0.27296,-0.39165 0.77538,-0.629014 0.50242,-0.237363 1.05232,-0.237363 1.77231,0 1.77231,1.693193 0,0.850553 -0.54198,1.633853 -0.53802,0.779344 -1.64176,1.499346 v 0.118682 h 2.4211 v 0.751652 z m 4.43869,-1.258027 0.79122,-4.043093 h 0.85451 l -0.65275,3.307266 h 1.79209 v -3.623751 h 0.82286 v 3.623751 h 0.53011 v 0.735827 h -0.53011 v 1.258027 h -0.82286 v -1.258027 z m 6.82816,1.337148 q -1.91473,0 -1.91473,-2.848363 0,-2.927484 1.91473,-2.927484 1.91474,0 1.91474,2.927484 0,2.848363 -1.91474,2.848363 z m 0,-0.727915 q 1.06814,0 1.06814,-2.120448 0,-2.199569 -1.06814,-2.199569 -1.06813,0 -1.06813,2.199569 0,2.120448 1.06813,2.120448 z m 0,-1.527039 q -0.26505,0 -0.43121,-0.162199 -0.1622,-0.166154 -0.1622,-0.43121 0,-0.269012 0.1622,-0.431211 0.16616,-0.162198 0.43121,-0.162198 0.26902,0 0.43121,0.162198 0.1622,0.162199 0.1622,0.431211 0,0.265056 -0.1622,0.43121 -0.16219,0.162199 -0.43121,0.162199 z m 4.74727,2.254954 q -1.91473,0 -1.91473,-2.848363 0,-2.927484 1.91473,-2.927484 1.91474,0 1.91474,2.927484 0,2.848363 -1.91474,2.848363 z m 0,-0.727915 q 1.06814,0 1.06814,-2.120448 0,-2.199569 -1.06814,-2.199569 -1.06813,0 -1.06813,2.199569 0,2.120448 1.06813,2.120448 z m 0,-1.527039 q -0.26505,0 -0.43121,-0.162199 -0.16219,-0.166154 -0.16219,-0.43121 0,-0.269012 0.16219,-0.431211 0.16616,-0.162198 0.43121,-0.162198 0.26902,0 0.43122,0.162198 0.16219,0.162199 0.16219,0.431211 0,0.265056 -0.16219,0.43121 -0.1622,0.162199 -0.43122,0.162199 z"
       id="text72"
       style="font-size:8.10201px;font-family:'Cascadia Code';-inkscape-font-specification:'Cascadia Code';stroke-width:1.66888"
       aria-label="2400" />
    <path
       d="m 418.87951,23.602847 q -0.43516,0 -0.79912,-0.05143 -0.36,-0.05143 -0.64088,-0.138462 l 0.0989,-0.755608 q 0.24132,0.06725 0.54198,0.142419 0.30462,0.07517 0.76748,0.07517 0.61714,0 0.95736,-0.245276 0.34022,-0.245276 0.34022,-0.688354 0,-0.474727 -0.43516,-0.731871 -0.43517,-0.257144 -1.23429,-0.257144 h -0.1266 l -0.0949,-0.514288 q 0.93363,-0.126594 1.35297,-0.423298 0.41934,-0.300661 0.41934,-0.731871 0,-0.344177 -0.22549,-0.534068 -0.22154,-0.193847 -0.63693,-0.193847 -0.30066,0 -0.64088,0.15033 -0.33627,0.15033 -0.63693,0.450991 l -0.54593,-0.54198 q 0.36395,-0.41143 0.84264,-0.597365 0.47868,-0.189891 1.06813,-0.189891 0.76748,0 1.18682,0.328353 0.41934,0.324397 0.41934,0.929674 0,0.506375 -0.32439,0.882201 -0.3244,0.37187 -0.8466,0.510332 v 0.08308 q 0.58154,0.102858 0.93363,0.478683 0.35605,0.37187 0.35605,0.981103 0,0.751651 -0.5499,1.167037 -0.54593,0.415387 -1.54682,0.415387 z m 5.0875,0 q -1.91474,0 -1.91474,-2.848363 0,-2.927484 1.91474,-2.927484 1.91473,0 1.91473,2.927484 0,2.848363 -1.91473,2.848363 z m 0,-0.727915 q 1.06813,0 1.06813,-2.120448 0,-2.199569 -1.06813,-2.199569 -1.06814,0 -1.06814,2.199569 0,2.120448 1.06814,2.120448 z m 0,-1.527039 q -0.26506,0 -0.43121,-0.162199 -0.1622,-0.166154 -0.1622,-0.43121 0,-0.269012 0.1622,-0.431211 0.16615,-0.162198 0.43121,-0.162198 0.26901,0 0.43121,0.162198 0.1622,0.162199 0.1622,0.431211 0,0.265056 -0.1622,0.43121 -0.1622,0.162199 -0.43121,0.162199 z m 4.74727,2.254954 q -1.91473,0 -1.91473,-2.848363 0,-2.927484 1.91473,-2.927484 1.91473,0 1.91473,2.927484 0,2.848363 -1.91473,2.848363 z m 0,-0.727915 q 1.06813,0 1.06813,-2.120448 0,-2.199569 -1.06813,-2.199569 -1.06814,0 -1.06814,2.199569 0,2.120448 1.06814,2.120448 z m 0,-1.527039 q -0.26506,0 -0.43121,-0.162199 -0.1622,-0.166154 -0.1622,-0.43121 0,-0.269012 0.1622,-0.431211 0.16615,-0.162198 0.43121,-0.162198 0.26901,0 0.43121,0.162198 0.1622,0.162199 0.1622,0.431211 0,0.265056 -0.1622,0.43121 -0.1622,0.162199 -0.43121,0.162199 z m 4.74727,2.254954 q -1.91473,0 -1.91473,-2.848363 0,-2.927484 1.91473,-2.927484 1.91473,0 1.91473,2.927484 0,2.848363 -1.91473,2.848363 z m 0,-0.727915 q 1.06814,0 1.06814,-2.120448 0,-2.199569 -1.06814,-2.199569 -1.06814,0 -1.06814,2.199569 0,2.120448 1.06814,2.120448 z m 0,-1.527039 q -0.26506,0 -0.43121,-0.162199 -0.1622,-0.166154 -0.1622,-0.43121 0,-0.269012 0.1622,-0.431211 0.16615,-0.162198 0.43121,-0.162198 0.26901,0 0.43121,0.162198 0.1622,0.162199 0.1622,0.431211 0,0.265056 -0.1622,0.43121 -0.1622,0.162199 -0.43121,0.162199 z"
       id="text73"
       style="font-size:8.10201px;font-family:'Cascadia Code';-inkscape-font-specification:'Cascadia Code';stroke-width:1.66888"
       aria-label="3000" />
    <path
       d="m 543.93312,23.602847 q -0.97715,0 -1.44001,-0.486596 -0.4589,-0.486595 -0.4589,-1.51517 v -0.348134 q 0,-1.610116 0.81495,-2.4488 0.8189,-0.838685 2.49231,-0.921762 l 0.0791,0.751651 q -2.50418,0.106814 -2.50814,2.247042 h 0.0712 q 0.11868,-0.439123 0.47077,-0.676486 0.35605,-0.24132 0.86638,-0.24132 0.73583,0 1.13539,0.454947 0.39956,0.454947 0.39956,1.285719 0,0.89407 -0.51033,1.396489 -0.50638,0.50242 -1.41231,0.50242 z m 0.0277,-0.727915 q 0.50242,0 0.7833,-0.308573 0.28088,-0.312529 0.28088,-0.862421 0,-0.486595 -0.2611,-0.747695 -0.25715,-0.265056 -0.73978,-0.265056 -0.5499,0 -0.8466,0.284836 -0.29671,0.284836 -0.29671,0.807036 0,0.514288 0.28484,0.80308 0.28484,0.288793 0.79517,0.288793 z m 4.68793,0.727915 q -1.91473,0 -1.91473,-2.848363 0,-2.927484 1.91473,-2.927484 1.91473,0 1.91473,2.927484 0,2.848363 -1.91473,2.848363 z m 0,-0.727915 q 1.06814,0 1.06814,-2.120448 0,-2.199569 -1.06814,-2.199569 -1.06814,0 -1.06814,2.199569 0,2.120448 1.06814,2.120448 z m 0,-1.527039 q -0.26506,0 -0.43121,-0.162199 -0.1622,-0.166154 -0.1622,-0.43121 0,-0.269012 0.1622,-0.431211 0.16615,-0.162198 0.43121,-0.162198 0.26901,0 0.43121,0.162198 0.1622,0.162199 0.1622,0.431211 0,0.265056 -0.1622,0.43121 -0.1622,0.162199 -0.43121,0.162199 z m 4.74727,2.254954 q -1.91473,0 -1.91473,-2.848363 0,-2.927484 1.91473,-2.927484 1.91473,0 1.91473,2.927484 0,2.848363 -1.91473,2.848363 z m 0,-0.727915 q 1.06814,0 1.06814,-2.120448 0,-2.199569 -1.06814,-2.199569 -1.06814,0 -1.06814,2.199569 0,2.120448 1.06814,2.120448 z m 0,-1.527039 q -0.26506,0 -0.43121,-0.162199 -0.1622,-0.166154 -0.1622,-0.43121 0,-0.269012 0.1622,-0.431211 0.16615,-0.162198 0.43121,-0.162198 0.26901,0 0.43121,0.162198 0.1622,0.162199 0.1622,0.431211 0,0.265056 -0.1622,0.43121 -0.1622,0.162199 -0.43121,0.162199 z m 4.74727,2.254954 q -1.91473,0 -1.91473,-2.848363 0,-2.927484 1.91473,-2.927484 1.91474,0 1.91474,2.927484 0,2.848363 -1.91474,2.848363 z m 0,-0.727915 q 1.06814,0 1.06814,-2.120448 0,-2.199569 -1.06814,-2.199569 -1.06813,0 -1.06813,2.199569 0,2.120448 1.06813,2.120448 z m 0,-1.527039 q -0.26505,0 -0.43121,-0.162199 -0.1622,-0.166154 -0.1622,-0.43121 0,-0.269012 0.1622,-0.431211 0.16616,-0.162198 0.43121,-0.162198 0.26901,0 0.43121,0.162198 0.1622,0.162199 0.1622,0.431211 0,0.265056 -0.1622,0.43121 -0.1622,0.162199 -0.43121,0.162199 z"
       id="text74"
       style="font-size:8.10201px;font-family:'Cascadia Code';-inkscape-font-specification:'Cascadia Code';stroke-width:1.66888"
       aria-label="6000" />
    <path
       d="m 713.3843,21.521959 q -0.73583,0 -1.13539,-0.454946 -0.39957,-0.454947 -0.39957,-1.28572 0,-0.898025 0.50638,-1.396489 0.51033,-0.502419 1.41627,-0.502419 0.97715,0 1.43605,0.486595 0.46286,0.486595 0.46286,1.515171 v 0.348133 q 0,1.60616 -0.81891,2.448801 -0.81494,0.838684 -2.48836,0.921762 l -0.0791,-0.751652 q 2.50419,-0.106813 2.50814,-2.247041 h -0.0712 q -0.11868,0.439122 -0.47472,0.680442 -0.35209,0.237363 -0.86242,0.237363 z m 0.2967,-0.727915 q 0.54989,0 0.8466,-0.284836 0.2967,-0.284836 0.2967,-0.807036 0,-0.514288 -0.28483,-0.80308 -0.28484,-0.288792 -0.79517,-0.288792 -0.50242,0 -0.7833,0.308572 -0.28088,0.308573 -0.28088,0.862421 0,0.486596 0.25714,0.751652 0.2611,0.261099 0.74374,0.261099 z m 4.83035,2.808803 q -1.91473,0 -1.91473,-2.848363 0,-2.927484 1.91473,-2.927484 1.91473,0 1.91473,2.927484 0,2.848363 -1.91473,2.848363 z m 0,-0.727915 q 1.06814,0 1.06814,-2.120448 0,-2.199569 -1.06814,-2.199569 -1.06814,0 -1.06814,2.199569 0,2.120448 1.06814,2.120448 z m 0,-1.527039 q -0.26506,0 -0.43121,-0.162199 -0.1622,-0.166154 -0.1622,-0.43121 0,-0.269012 0.1622,-0.431211 0.16615,-0.162198 0.43121,-0.162198 0.26901,0 0.43121,0.162198 0.1622,0.162199 0.1622,0.431211 0,0.265056 -0.1622,0.43121 -0.1622,0.162199 -0.43121,0.162199 z m 4.74727,2.254954 q -1.91473,0 -1.91473,-2.848363 0,-2.927484 1.91473,-2.927484 1.91473,0 1.91473,2.927484 0,2.848363 -1.91473,2.848363 z m 0,-0.727915 q 1.06814,0 1.06814,-2.120448 0,-2.199569 -1.06814,-2.199569 -1.06814,0 -1.06814,2.199569 0,2.120448 1.06814,2.120448 z m 0,-1.527039 q -0.26506,0 -0.43121,-0.162199 -0.1622,-0.166154 -0.1622,-0.43121 0,-0.269012 0.1622,-0.431211 0.16615,-0.162198 0.43121,-0.162198 0.26901,0 0.43121,0.162198 0.1622,0.162199 0.1622,0.431211 0,0.265056 -0.1622,0.43121 -0.1622,0.162199 -0.43121,0.162199 z m 4.74727,2.254954 q -1.91473,0 -1.91473,-2.848363 0,-2.927484 1.91473,-2.927484 1.91473,0 1.91473,2.927484 0,2.848363 -1.91473,2.848363 z m 0,-0.727915 q 1.06814,0 1.06814,-2.120448 0,-2.199569 -1.06814,-2.199569 -1.06813,0 -1.06813,2.199569 0,2.120448 1.06813,2.120448 z m 0,-1.527039 q -0.26505,0 -0.43121,-0.162199 -0.1622,-0.166154 -0.1622,-0.43121 0,-0.269012 0.1622,-0.431211 0.16616,-0.162198 0.43121,-0.162198 0.26901,0 0.43121,0.162198 0.1622,0.162199 0.1622,0.431211 0,0.265056 -0.1622,0.43121 -0.1622,0.162199 -0.43121,0.162199 z"
       id="text75"
       style="font-size:8.10201px;font-family:'Cascadia Code';-inkscape-font-specification:'Cascadia Code';stroke-width:1.66888"
       aria-label="9000" />
    <path
       d="m 878.72264,23.523726 v -0.751652 h 1.40836 v -4.051005 l -1.32924,0.458903 v -0.799124 l 1.32924,-0.474727 h 0.82286 v 4.865953 h 1.25802 v 0.751652 z m 4.67606,0 v -0.901982 q 1.30155,-0.720003 1.94243,-1.495391 0.64484,-0.779343 0.64484,-1.60616 0,-0.965278 -0.95737,-0.965278 -0.32044,0 -0.66858,0.185935 -0.34813,0.185934 -0.59736,0.494507 l -0.54594,-0.54198 q 0.27297,-0.39165 0.77539,-0.629014 0.50242,-0.237363 1.05231,-0.237363 1.77232,0 1.77232,1.693193 0,0.850553 -0.54198,1.633853 -0.53803,0.779344 -1.64177,1.499346 v 0.118682 h 2.42111 v 0.751652 z m 6.51959,0.07912 q -1.91473,0 -1.91473,-2.848363 0,-2.927484 1.91473,-2.927484 1.91473,0 1.91473,2.927484 0,2.848363 -1.91473,2.848363 z m 0,-0.727915 q 1.06813,0 1.06813,-2.120448 0,-2.199569 -1.06813,-2.199569 -1.06814,0 -1.06814,2.199569 0,2.120448 1.06814,2.120448 z m 0,-1.527039 q -0.26506,0 -0.43121,-0.162199 -0.1622,-0.166154 -0.1622,-0.43121 0,-0.269012 0.1622,-0.431211 0.16615,-0.162198 0.43121,-0.162198 0.26901,0 0.43121,0.162198 0.1622,0.162199 0.1622,0.431211 0,0.265056 -0.1622,0.43121 -0.1622,0.162199 -0.43121,0.162199 z m 4.74727,2.254954 q -1.91473,0 -1.91473,-2.848363 0,-2.927484 1.91473,-2.927484 1.91473,0 1.91473,2.927484 0,2.848363 -1.91473,2.848363 z m 0,-0.727915 q 1.06814,0 1.06814,-2.120448 0,-2.199569 -1.06814,-2.199569 -1.06814,0 -1.06814,2.199569 0,2.120448 1.06814,2.120448 z m 0,-1.527039 q -0.26506,0 -0.43121,-0.162199 -0.1622,-0.166154 -0.1622,-0.43121 0,-0.269012 0.1622,-0.431211 0.16615,-0.162198 0.43121,-0.162198 0.26901,0 0.43121,0.162198 0.1622,0.162199 0.1622,0.431211 0,0.265056 -0.1622,0.43121 -0.1622,0.162199 -0.43121,0.162199 z m 4.74727,2.254954 q -1.91473,0 -1.91473,-2.848363 0,-2.927484 1.91473,-2.927484 1.91473,0 1.91473,2.927484 0,2.848363 -1.91473,2.848363 z m 0,-0.727915 q 1.06814,0 1.06814,-2.120448 0,-2.199569 -1.06814,-2.199569 -1.06813,0 -1.06813,2.199569 0,2.120448 1.06813,2.120448 z m 0,-1.527039 q -0.26505,0 -0.43121,-0.162199 -0.1622,-0.166154 -0.1622,-0.43121 0,-0.269012 0.1622,-0.431211 0.16616,-0.162198 0.43121,-0.162198 0.26901,0 0.43121,0.162198 0.1622,0.162199 0.1622,0.431211 0,0.265056 -0.1622,0.43121 -0.1622,0.162199 -0.43121,0.162199 z m 4.32793,1.424181 v -1.689237 h -1.55869 V 20.34701 h 1.55869 v -1.681326 h 0.83869 v 1.681326 h 1.55868 v 0.735827 h -1.55868 v 1.689237 z"
       id="text76"
       style="font-size:8.10201px;font-family:'Cascadia Code';-inkscape-font-specification:'Cascadia Code';stroke-width:1.66888"
       aria-label="12000+" />
  </g>
</svg>
