<?xml version="1.0" encoding="UTF-8" standalone="no"?>
<svg
   viewBox="10.6 0 896.2 28.39"
   version="1.1"
   id="svg66"
   xmlns="http://www.w3.org/2000/svg"
   xmlns:svg="http://www.w3.org/2000/svg"
   xmlns:rdf="http://www.w3.org/1999/02/22-rdf-syntax-ns#"
   xmlns:cc="http://creativecommons.org/ns#"
   xmlns:dc="http://purl.org/dc/elements/1.1/">
  <defs
     id="defs10">
    <style
       id="style1">.cls-1{fill:url(#linear-gradient);}.cls-2{fill:none;stroke:#000;stroke-miterlimit:10;}</style>
    <linearGradient
       id="linear-gradient"
       x1="77.89"
       y1="6.58"
       x2="906.28"
       y2="6.58"
       gradientUnits="userSpaceOnUse">
      <stop
         offset="0.033"
         stop-color="hsl(23, 88%, 51%)"
         id="stop1" />
      <stop
         offset="0.066"
         stop-color="hsl(26, 88%, 52%)"
         id="stop2" />
      <stop
         offset="0.126"
         stop-color="hsl(32, 88%, 54%)"
         id="stop3" />
      <stop
         offset="0.19"
         stop-color="hsl(43, 88%, 53%)"
         id="stop4" />
      <stop
         offset="0.253"
         stop-color="hsl(54, 88%, 45%)"
         id="stop5" />
      <stop
         offset="0.316"
         stop-color="hsl(72, 88%, 42%)"
         id="stop6" />
      <stop
         offset="0.38"
         stop-color="hsl(112, 88%, 41%)"
         id="stop7" />
      <stop
         offset="0.59"
         stop-color="hsl(189, 88%, 44%)"
         id="stop8" />
      <stop
         offset="0.79"
         stop-color="hsl(244, 88%, 57%)"
         id="stop9" />
      <stop
         offset="1"
         stop-color="hsl(300, 88%, 43%)"
         id="stop10" />
    </linearGradient>
  </defs>
  <title
     id="title10">Altitude Legend (m)</title>
  <g
     id="Layer_2"
     data-name="Layer 2">
    <g
       id="REDESIGN"
       style="display:inline">
      <rect
         class="cls-1"
         x="77.889999"
         width="828.40002"
         height="13.17"
         id="rect10"
         y="0" />
      <polyline
         class="cls-2"
         points="78 0 78 13.4 906.28 13.4 906.28 0"
         id="polyline10" />
      <line
         class="cls-2"
         x1="720.95001"
         x2="720.95001"
         y2="14.19"
         id="line16"
         y1="0" />
      <line
         class="cls-2"
         x1="551.12"
         x2="551.12"
         y2="14.19"
         id="line21"
         y1="0" />
      <line
         class="cls-2"
         x1="426.53"
         x2="426.53"
         y2="14.19"
         id="line26"
         y1="0" />
      <line
         class="cls-2"
         x1="369.76001"
         x2="369.76001"
         y2="14.19"
         id="line31"
         y1="0" />
      <line
         class="cls-2"
         x1="311.41"
         x2="311.41"
         y2="14.19"
         id="line35"
         y1="0" />
      <line
         class="cls-2"
         x1="253.06"
         x2="253.06"
         y2="14.19"
         id="line39"
         y1="0" />
      <line
         class="cls-2"
         x1="194.7"
         x2="194.7"
         y2="14.19"
         id="line43"
         y1="0" />
      <line
         class="cls-2"
         x1="136.35001"
         x2="136.35001"
         y2="14.19"
         id="line47"
         y1="0" />
      <line
         class="cls-2"
         x1="106.39"
         x2="106.39"
         y2="14.19"
         id="line51"
         y1="0" />
      <path
         d="m 13.507,11.602816 1.62198,-5.6176041 h 1.14726 l 1.62199,5.6176041 H 17.06745 L 16.69954,10.23402 h -1.99385 l -0.36792,1.368796 z m 1.40044,-2.1204476 h 1.59034 L 15.73822,6.6656541 h -0.0712 z m 3.80178,2.1204476 V 5.9852119 h 0.82286 v 4.8659531 h 2.89583 v 0.751651 z m 6.07651,0 V 6.7368631 H 23.14001 V 5.9852119 h 4.1143 v 0.7516512 h -1.64572 v 4.8659529 z m 3.44968,0 v -0.751651 h 1.29363 V 6.7368631 H 28.23541 V 5.9852119 h 3.41804 V 6.7368631 H 30.3519 v 4.1143019 h 1.30155 v 0.751651 z m 6.04486,0 V 6.7368631 H 32.63455 V 5.9852119 h 4.1143 v 0.7516512 h -1.64572 v 4.8659529 z m 5.14288,0.07912 q -1.80397,0 -1.80397,-1.8830848 V 5.9852119 h 0.82286 v 3.8136413 q 0,0.5617608 0.24132,0.8465968 0.24132,0.284836 0.75561,0.284836 0.99693,0 0.99693,-1.1314328 V 5.9852119 h 0.82286 v 3.8136413 q 0,0.9415418 -0.46682,1.4123128 -0.46681,0.470772 -1.36879,0.470772 z m 2.94331,-0.07912 V 5.9852119 h 1.36088 q 2.57144,0 2.57144,2.8879234 0,2.7296807 -2.57144,2.7296807 z m 0.82285,-0.751651 h 0.53803 q 1.74066,0 1.74066,-1.9780297 0,-2.1362722 -1.74066,-2.1362722 h -0.53803 z m 4.00354,0.751651 V 5.9852119 h 3.71869 v 0.7516512 h -2.89583 v 1.6773693 h 2.18374 v 0.7516513 h -2.18374 v 1.6852813 h 2.89583 v 0.751651 z m 12.61983,0.791212 q -1.28572,0 -1.99781,-0.945498 -0.70814,-0.949454 -0.70814,-2.6782523 0,-1.7050616 0.70814,-2.6386916 Q 58.52696,5.194 59.81268,5.194 h 0.18989 V 5.9060907 H 59.8918 q -0.93759,0 -1.44792,0.7516513 -0.50637,0.7516513 -0.50637,2.1125357 0,1.3846213 0.50637,2.1481403 0.51033,0.76352 1.44792,0.76352 h 0.11077 v 0.71209 z M 64.2672,11.602816 V 8.3984081 q 0,-0.4351665 -0.32439,-0.4351665 -0.41143,0 -0.41143,0.5696725 V 11.602816 H 62.81929 V 8.3192869 q 0,-0.3560453 -0.33231,-0.3560453 -0.40352,0 -0.40352,0.5696725 V 11.602816 H 61.24477 V 7.4093933 h 0.74374 l 0.0554,0.5221998 h 0.0633 q 0.0475,-0.601321 0.72,-0.601321 0.26506,0 0.43913,0.1503302 0.17802,0.1503303 0.23736,0.4509908 h 0.0673 q 0.0198,-0.2452757 0.19385,-0.4232984 0.17802,-0.1780226 0.51033,-0.1780226 0.43517,0 0.63297,0.2334075 0.1978,0.2334075 0.1978,0.7556073 v 3.2835291 z m 2.08089,0.791212 v -0.71209 h 0.11077 q 0.93758,0 1.44396,-0.76352 0.51033,-0.763519 0.51033,-2.1481403 0,-1.3608844 -0.51033,-2.1125357 Q 67.39644,5.9060907 66.45886,5.9060907 H 66.34809 V 5.194 h 0.18989 q 1.28967,0 1.99781,0.9375861 0.70813,0.93363 0.70813,2.6386916 0,1.7287983 -0.70813,2.6782523 -0.70814,0.945498 -1.99781,0.945498 z"
         id="text66"
         style="font-size:8.10201px;font-family:'Cascadia Code';-inkscape-font-specification:'Cascadia Code';stroke-width:1.66888"
         aria-label="ALTITUDE (m)" />
      <path
         d="m 78.074919,24.297271 q -1.91473,0 -1.91473,-2.848363 0,-2.927484 1.91473,-2.927484 1.91474,0 1.91474,2.927484 0,2.848363 -1.91474,2.848363 z m 0,-0.727915 q 1.06814,0 1.06814,-2.120448 0,-2.199569 -1.06814,-2.199569 -1.06813,0 -1.06813,2.199569 0,2.120448 1.06813,2.120448 z m 0,-1.527039 q -0.26505,0 -0.43121,-0.162198 -0.1622,-0.166155 -0.1622,-0.431211 0,-0.269012 0.1622,-0.43121 0.16616,-0.162199 0.43121,-0.162199 0.26901,0 0.43121,0.162199 0.1622,0.162198 0.1622,0.43121 0,0.265056 -0.1622,0.431211 -0.1622,0.162198 -0.43121,0.162198 z"
         id="text66-0"
         style="font-size:8.10201px;font-family:'Cascadia Code';-inkscape-font-specification:'Cascadia Code';stroke-width:1.66888"
         aria-label="0" />
      <path
         d="m 99.794861,24.217727 v -0.751652 h 1.408359 V 19.41507 l -1.329239,0.458903 v -0.799124 l 1.329239,-0.474727 h 0.82286 v 4.865953 h 1.25802 v 0.751652 z m 6.503759,0.07912 q -0.90989,0 -1.40835,-0.431211 -0.49847,-0.435166 -0.49847,-1.222422 h 0.8466 q 0,0.439122 0.27692,0.684398 0.27693,0.24132 0.79121,0.24132 0.50638,0 0.7833,-0.304617 0.27693,-0.304616 0.27693,-0.858465 0,-0.54198 -0.30066,-0.838684 -0.30066,-0.300661 -0.85451,-0.300661 -0.55385,0 -1.03649,0.2611 h -0.44308 l 0.0791,-2.927484 h 3.03035 v 0.735827 h -2.20749 l -0.0435,1.360885 q 0.22549,-0.08308 0.44703,-0.11077 0.2255,-0.03165 0.45099,-0.03165 0.81495,0 1.26199,0.48264 0.44703,0.482639 0.44703,1.368796 0,0.901982 -0.49846,1.396489 -0.49451,0.494508 -1.40045,0.494508 z m 4.69189,0 q -1.91473,0 -1.91473,-2.848363 0,-2.927484 1.91473,-2.927484 1.91473,0 1.91473,2.927484 0,2.848363 -1.91473,2.848363 z m 0,-0.727915 q 1.06814,0 1.06814,-2.120448 0,-2.199569 -1.06814,-2.199569 -1.06814,0 -1.06814,2.199569 0,2.120448 1.06814,2.120448 z m 0,-1.527039 q -0.26506,0 -0.43121,-0.162199 -0.1622,-0.166154 -0.1622,-0.43121 0,-0.269012 0.1622,-0.431211 0.16615,-0.162198 0.43121,-0.162198 0.26901,0 0.43121,0.162198 0.1622,0.162199 0.1622,0.431211 0,0.265056 -0.1622,0.43121 -0.1622,0.162199 -0.43121,0.162199 z"
         id="text67"
         style="font-size:8.10201px;font-family:'Cascadia Code';-inkscape-font-specification:'Cascadia Code';stroke-width:1.66888"
         aria-label="150" />
      <path
         d="m 131.03078,24.296848 q -0.43517,0 -0.79913,-0.05143 -0.36,-0.05143 -0.64088,-0.138462 l 0.0989,-0.755608 q 0.24132,0.06725 0.54198,0.142419 0.30462,0.07517 0.76748,0.07517 0.61714,0 0.95736,-0.245276 0.34022,-0.245276 0.34022,-0.688354 0,-0.474727 -0.43516,-0.731871 -0.43517,-0.257144 -1.23429,-0.257144 h -0.1266 l -0.0949,-0.514288 q 0.93363,-0.126594 1.35297,-0.423298 0.41934,-0.300661 0.41934,-0.731871 0,-0.344177 -0.22549,-0.534068 -0.22154,-0.193847 -0.63693,-0.193847 -0.30066,0 -0.64088,0.15033 -0.33626,0.15033 -0.63693,0.450991 l -0.54593,-0.54198 q 0.36396,-0.41143 0.84264,-0.597365 0.47868,-0.189891 1.06814,-0.189891 0.76747,0 1.18681,0.328353 0.41935,0.324397 0.41935,0.929674 0,0.506375 -0.3244,0.882201 -0.3244,0.37187 -0.8466,0.510332 v 0.08308 q 0.58154,0.102858 0.93363,0.478683 0.35605,0.37187 0.35605,0.981103 0,0.751651 -0.5499,1.167037 -0.54593,0.415387 -1.54681,0.415387 z m 5.08749,0 q -1.91473,0 -1.91473,-2.848363 0,-2.927484 1.91473,-2.927484 1.91473,0 1.91473,2.927484 0,2.848363 -1.91473,2.848363 z m 0,-0.727915 q 1.06813,0 1.06813,-2.120448 0,-2.199569 -1.06813,-2.199569 -1.06814,0 -1.06814,2.199569 0,2.120448 1.06814,2.120448 z m 0,-1.527039 q -0.26506,0 -0.43121,-0.162199 -0.1622,-0.166154 -0.1622,-0.43121 0,-0.269012 0.1622,-0.431211 0.16615,-0.162198 0.43121,-0.162198 0.26901,0 0.43121,0.162198 0.1622,0.162199 0.1622,0.431211 0,0.265056 -0.1622,0.43121 -0.1622,0.162199 -0.43121,0.162199 z m 4.74727,2.254954 q -1.91473,0 -1.91473,-2.848363 0,-2.927484 1.91473,-2.927484 1.91473,0 1.91473,2.927484 0,2.848363 -1.91473,2.848363 z m 0,-0.727915 q 1.06814,0 1.06814,-2.120448 0,-2.199569 -1.06814,-2.199569 -1.06814,0 -1.06814,2.199569 0,2.120448 1.06814,2.120448 z m 0,-1.527039 q -0.26506,0 -0.43121,-0.162199 -0.1622,-0.166154 -0.1622,-0.43121 0,-0.269012 0.1622,-0.431211 0.16615,-0.162198 0.43121,-0.162198 0.26901,0 0.43121,0.162198 0.1622,0.162199 0.1622,0.431211 0,0.265056 -0.1622,0.43121 -0.1622,0.162199 -0.43121,0.162199 z"
         id="text68"
         style="font-size:8.10201px;font-family:'Cascadia Code';-inkscape-font-specification:'Cascadia Code';stroke-width:1.66888"
         aria-label="300" />
      <path
         d="m 189.8722,24.296848 q -0.97714,0 -1.44,-0.486596 -0.4589,-0.486595 -0.4589,-1.51517 v -0.348134 q 0,-1.610116 0.81494,-2.4488 0.81891,-0.838685 2.49232,-0.921762 l 0.0791,0.751651 q -2.50418,0.106814 -2.50814,2.247042 h 0.0712 q 0.11868,-0.439123 0.47077,-0.676486 0.35605,-0.24132 0.86638,-0.24132 0.73582,0 1.13539,0.454947 0.39956,0.454947 0.39956,1.285719 0,0.89407 -0.51033,1.396489 -0.50638,0.50242 -1.41232,0.50242 z m 0.0277,-0.727915 q 0.50242,0 0.7833,-0.308573 0.28088,-0.312529 0.28088,-0.862421 0,-0.486595 -0.2611,-0.747695 -0.25715,-0.265056 -0.73979,-0.265056 -0.54989,0 -0.84659,0.284836 -0.29671,0.284836 -0.29671,0.807036 0,0.514288 0.28484,0.80308 0.28483,0.288793 0.79517,0.288793 z m 4.68793,0.727915 q -1.91474,0 -1.91474,-2.848363 0,-2.927484 1.91474,-2.927484 1.91473,0 1.91473,2.927484 0,2.848363 -1.91473,2.848363 z m 0,-0.727915 q 1.06813,0 1.06813,-2.120448 0,-2.199569 -1.06813,-2.199569 -1.06814,0 -1.06814,2.199569 0,2.120448 1.06814,2.120448 z m 0,-1.527039 q -0.26506,0 -0.43121,-0.162199 -0.1622,-0.166154 -0.1622,-0.43121 0,-0.269012 0.1622,-0.431211 0.16615,-0.162198 0.43121,-0.162198 0.26901,0 0.43121,0.162198 0.1622,0.162199 0.1622,0.431211 0,0.265056 -0.1622,0.43121 -0.1622,0.162199 -0.43121,0.162199 z m 4.74727,2.254954 q -1.91473,0 -1.91473,-2.848363 0,-2.927484 1.91473,-2.927484 1.91473,0 1.91473,2.927484 0,2.848363 -1.91473,2.848363 z m 0,-0.727915 q 1.06813,0 1.06813,-2.120448 0,-2.199569 -1.06813,-2.199569 -1.06814,0 -1.06814,2.199569 0,2.120448 1.06814,2.120448 z m 0,-1.527039 q -0.26506,0 -0.43121,-0.162199 -0.1622,-0.166154 -0.1622,-0.43121 0,-0.269012 0.1622,-0.431211 0.16615,-0.162198 0.43121,-0.162198 0.26901,0 0.43121,0.162198 0.1622,0.162199 0.1622,0.431211 0,0.265056 -0.1622,0.43121 -0.1622,0.162199 -0.43121,0.162199 z"
         id="text69"
         style="font-size:8.10201px;font-family:'Cascadia Code';-inkscape-font-specification:'Cascadia Code';stroke-width:1.66888"
         aria-label="600" />
      <path
         d="m 244.16459,24.217726 v -0.751651 h 1.40832 v -4.051003 l -1.3292,0.458903 v -0.799124 l 1.3292,-0.474727 h 0.82284 v 4.865951 h 1.258 v 0.751651 z m 4.67595,0 v -0.901981 q 1.30151,-0.720002 1.94238,-1.49539 0.64482,-0.779343 0.64482,-1.60616 0,-0.965277 -0.95735,-0.965277 -0.32042,0 -0.66855,0.185934 -0.34812,0.185935 -0.59735,0.494508 l -0.54592,-0.541981 q 0.27296,-0.391649 0.77537,-0.629012 0.5024,-0.237364 1.05228,-0.237364 1.77227,0 1.77227,1.693192 0,0.850553 -0.54196,1.633853 -0.53801,0.779343 -1.64173,1.499345 v 0.118682 h 2.42105 v 0.751651 z m 6.51943,0.07912 q -1.91469,0 -1.91469,-2.848361 0,-2.927483 1.91469,-2.927483 1.91468,0 1.91468,2.927483 0,2.848361 -1.91468,2.848361 z m 0,-0.727915 q 1.06811,0 1.06811,-2.120446 0,-2.199568 -1.06811,-2.199568 -1.06811,0 -1.06811,2.199568 0,2.120446 1.06811,2.120446 z m 0,-1.527038 q -0.26505,0 -0.4312,-0.162198 -0.1622,-0.166155 -0.1622,-0.43121 0,-0.269012 0.1622,-0.43121 0.16615,-0.162199 0.4312,-0.162199 0.269,0 0.4312,0.162199 0.16219,0.162198 0.16219,0.43121 0,0.265055 -0.16219,0.43121 -0.1622,0.162198 -0.4312,0.162198 z m 4.74716,2.254953 q -1.91469,0 -1.91469,-2.848361 0,-2.927483 1.91469,-2.927483 1.91468,0 1.91468,2.927483 0,2.848361 -1.91468,2.848361 z m 0,-0.727915 q 1.06811,0 1.06811,-2.120446 0,-2.199568 -1.06811,-2.199568 -1.06812,0 -1.06812,2.199568 0,2.120446 1.06812,2.120446 z m 0,-1.527038 q -0.26506,0 -0.43121,-0.162198 -0.16219,-0.166155 -0.16219,-0.43121 0,-0.269012 0.16219,-0.43121 0.16615,-0.162199 0.43121,-0.162199 0.269,0 0.43119,0.162199 0.1622,0.162198 0.1622,0.43121 0,0.265055 -0.1622,0.43121 -0.16219,0.162198 -0.43119,0.162198 z"
         id="text70"
         style="font-size:8.10191px;font-family:'Cascadia Code';-inkscape-font-specification:'Cascadia Code';stroke-width:1.66886"
         aria-label="1200" />
      <path
         d="m 302.41717,24.217727 v -0.751652 h 1.40836 V 19.41507 l -1.32923,0.458903 v -0.799124 l 1.32923,-0.474727 h 0.82286 v 4.865953 h 1.25803 v 0.751652 z m 6.44838,0.07912 q -0.91385,0 -1.41627,-0.423299 -0.49846,-0.427254 -0.49846,-1.198686 0,-0.565716 0.3244,-0.929674 0.32835,-0.363957 0.93363,-0.486595 v -0.05934 q -0.53012,-0.118682 -0.81495,-0.439122 -0.28484,-0.320441 -0.28484,-0.814949 0,-0.676486 0.4589,-1.048355 0.46286,-0.375826 1.29759,-0.375826 0.83869,0 1.29759,0.375826 0.4589,0.371869 0.4589,1.048355 0,0.490552 -0.28483,0.810992 -0.28088,0.320441 -0.80704,0.443079 v 0.05934 q 0.60132,0.126594 0.92572,0.490551 0.32439,0.360002 0.32439,0.925718 0,0.771432 -0.50241,1.198686 -0.49847,0.423299 -1.41232,0.423299 z m 0,-0.727915 q 0.51825,0 0.79913,-0.245276 0.28483,-0.245276 0.28483,-0.688354 0,-0.474727 -0.28483,-0.739783 -0.28088,-0.265056 -0.79913,-0.265056 -0.51824,0 -0.80308,0.265056 -0.28088,0.265056 -0.28088,0.739783 0,0.443078 0.28088,0.688354 0.28484,0.245276 0.80308,0.245276 z m 0,-2.698033 q 0.44308,0 0.6844,-0.201759 0.24132,-0.205715 0.24132,-0.565716 0,-0.411431 -0.24132,-0.63297 -0.24132,-0.221539 -0.6844,-0.221539 -0.44308,0 -0.6844,0.221539 -0.24132,0.221539 -0.24132,0.63297 0,0.360001 0.24132,0.565716 0.24132,0.201759 0.6844,0.201759 z m 4.74727,3.425948 q -1.91473,0 -1.91473,-2.848363 0,-2.927484 1.91473,-2.927484 1.91474,0 1.91474,2.927484 0,2.848363 -1.91474,2.848363 z m 0,-0.727915 q 1.06814,0 1.06814,-2.120448 0,-2.199569 -1.06814,-2.199569 -1.06813,0 -1.06813,2.199569 0,2.120448 1.06813,2.120448 z m 0,-1.527039 q -0.26505,0 -0.43121,-0.162199 -0.1622,-0.166154 -0.1622,-0.43121 0,-0.269012 0.1622,-0.431211 0.16616,-0.162198 0.43121,-0.162198 0.26902,0 0.43121,0.162198 0.1622,0.162199 0.1622,0.431211 0,0.265056 -0.1622,0.43121 -0.16219,0.162199 -0.43121,0.162199 z m 4.74728,2.254954 q -1.91474,0 -1.91474,-2.848363 0,-2.927484 1.91474,-2.927484 1.91473,0 1.91473,2.927484 0,2.848363 -1.91473,2.848363 z m 0,-0.727915 q 1.06813,0 1.06813,-2.120448 0,-2.199569 -1.06813,-2.199569 -1.06814,0 -1.06814,2.199569 0,2.120448 1.06814,2.120448 z m 0,-1.527039 q -0.26506,0 -0.43122,-0.162199 -0.16219,-0.166154 -0.16219,-0.43121 0,-0.269012 0.16219,-0.431211 0.16616,-0.162198 0.43122,-0.162198 0.26901,0 0.43121,0.162198 0.16219,0.162199 0.16219,0.431211 0,0.265056 -0.16219,0.43121 -0.1622,0.162199 -0.43121,0.162199 z"
         id="text71"
         style="font-size:8.10201px;font-family:'Cascadia Code';-inkscape-font-specification:'Cascadia Code';stroke-width:1.66888"
         aria-label="1800" />
      <path
         d="m 360.83474,24.217727 v -0.901982 q 1.30154,-0.720003 1.94242,-1.495391 0.64484,-0.779343 0.64484,-1.60616 0,-0.965278 -0.95737,-0.965278 -0.32044,0 -0.66857,0.185935 -0.34814,0.185934 -0.59737,0.494507 l -0.54593,-0.54198 q 0.27296,-0.39165 0.77538,-0.629014 0.50242,-0.237363 1.05232,-0.237363 1.77231,0 1.77231,1.693193 0,0.850553 -0.54198,1.633853 -0.53802,0.779344 -1.64176,1.499346 v 0.118682 h 2.4211 v 0.751652 z m 4.43869,-1.258027 0.79122,-4.043093 h 0.85451 l -0.65275,3.307266 h 1.79209 v -3.623751 h 0.82286 v 3.623751 h 0.53011 V 22.9597 h -0.53011 v 1.258027 H 368.0585 V 22.9597 Z m 6.82816,1.337148 q -1.91473,0 -1.91473,-2.848363 0,-2.927484 1.91473,-2.927484 1.91474,0 1.91474,2.927484 0,2.848363 -1.91474,2.848363 z m 0,-0.727915 q 1.06814,0 1.06814,-2.120448 0,-2.199569 -1.06814,-2.199569 -1.06813,0 -1.06813,2.199569 0,2.120448 1.06813,2.120448 z m 0,-1.527039 q -0.26505,0 -0.43121,-0.162199 -0.1622,-0.166154 -0.1622,-0.43121 0,-0.269012 0.1622,-0.431211 0.16616,-0.162198 0.43121,-0.162198 0.26902,0 0.43121,0.162198 0.1622,0.162199 0.1622,0.431211 0,0.265056 -0.1622,0.43121 -0.16219,0.162199 -0.43121,0.162199 z m 4.74727,2.254954 q -1.91473,0 -1.91473,-2.848363 0,-2.927484 1.91473,-2.927484 1.91474,0 1.91474,2.927484 0,2.848363 -1.91474,2.848363 z m 0,-0.727915 q 1.06814,0 1.06814,-2.120448 0,-2.199569 -1.06814,-2.199569 -1.06813,0 -1.06813,2.199569 0,2.120448 1.06813,2.120448 z m 0,-1.527039 q -0.26505,0 -0.43121,-0.162199 -0.16219,-0.166154 -0.16219,-0.43121 0,-0.269012 0.16219,-0.431211 0.16616,-0.162198 0.43121,-0.162198 0.26902,0 0.43122,0.162198 0.16219,0.162199 0.16219,0.431211 0,0.265056 -0.16219,0.43121 -0.1622,0.162199 -0.43122,0.162199 z"
         id="text72"
         style="font-size:8.10201px;font-family:'Cascadia Code';-inkscape-font-specification:'Cascadia Code';stroke-width:1.66888"
         aria-label="2400" />
      <path
         d="m 418.85618,24.296848 q -0.43516,0 -0.79912,-0.05143 -0.36,-0.05143 -0.64088,-0.138462 l 0.0989,-0.755608 q 0.24132,0.06725 0.54198,0.142419 0.30462,0.07517 0.76748,0.07517 0.61714,0 0.95736,-0.245276 0.34022,-0.245276 0.34022,-0.688354 0,-0.474727 -0.43516,-0.731871 -0.43517,-0.257144 -1.23429,-0.257144 h -0.1266 l -0.0949,-0.514288 q 0.93363,-0.126594 1.35297,-0.423298 0.41934,-0.300661 0.41934,-0.731871 0,-0.344177 -0.22549,-0.534068 -0.22154,-0.193847 -0.63693,-0.193847 -0.30066,0 -0.64088,0.15033 -0.33627,0.15033 -0.63693,0.450991 l -0.54593,-0.54198 q 0.36395,-0.41143 0.84264,-0.597365 0.47868,-0.189891 1.06813,-0.189891 0.76748,0 1.18682,0.328353 0.41934,0.324397 0.41934,0.929674 0,0.506375 -0.32439,0.882201 -0.3244,0.37187 -0.8466,0.510332 v 0.08308 q 0.58154,0.102858 0.93363,0.478683 0.35605,0.37187 0.35605,0.981103 0,0.751651 -0.5499,1.167037 -0.54593,0.415387 -1.54682,0.415387 z m 5.0875,0 q -1.91474,0 -1.91474,-2.848363 0,-2.927484 1.91474,-2.927484 1.91473,0 1.91473,2.927484 0,2.848363 -1.91473,2.848363 z m 0,-0.727915 q 1.06813,0 1.06813,-2.120448 0,-2.199569 -1.06813,-2.199569 -1.06814,0 -1.06814,2.199569 0,2.120448 1.06814,2.120448 z m 0,-1.527039 q -0.26506,0 -0.43121,-0.162199 -0.1622,-0.166154 -0.1622,-0.43121 0,-0.269012 0.1622,-0.431211 0.16615,-0.162198 0.43121,-0.162198 0.26901,0 0.43121,0.162198 0.1622,0.162199 0.1622,0.431211 0,0.265056 -0.1622,0.43121 -0.1622,0.162199 -0.43121,0.162199 z m 4.74727,2.254954 q -1.91473,0 -1.91473,-2.848363 0,-2.927484 1.91473,-2.927484 1.91473,0 1.91473,2.927484 0,2.848363 -1.91473,2.848363 z m 0,-0.727915 q 1.06813,0 1.06813,-2.120448 0,-2.199569 -1.06813,-2.199569 -1.06814,0 -1.06814,2.199569 0,2.120448 1.06814,2.120448 z m 0,-1.527039 q -0.26506,0 -0.43121,-0.162199 -0.1622,-0.166154 -0.1622,-0.43121 0,-0.269012 0.1622,-0.431211 0.16615,-0.162198 0.43121,-0.162198 0.26901,0 0.43121,0.162198 0.1622,0.162199 0.1622,0.431211 0,0.265056 -0.1622,0.43121 -0.1622,0.162199 -0.43121,0.162199 z m 4.74727,2.254954 q -1.91473,0 -1.91473,-2.848363 0,-2.927484 1.91473,-2.927484 1.91473,0 1.91473,2.927484 0,2.848363 -1.91473,2.848363 z m 0,-0.727915 q 1.06814,0 1.06814,-2.120448 0,-2.199569 -1.06814,-2.199569 -1.06814,0 -1.06814,2.199569 0,2.120448 1.06814,2.120448 z m 0,-1.527039 q -0.26506,0 -0.43121,-0.162199 -0.1622,-0.166154 -0.1622,-0.43121 0,-0.269012 0.1622,-0.431211 0.16615,-0.162198 0.43121,-0.162198 0.26901,0 0.43121,0.162198 0.1622,0.162199 0.1622,0.431211 0,0.265056 -0.1622,0.43121 -0.1622,0.162199 -0.43121,0.162199 z"
         id="text73"
         style="font-size:8.10201px;font-family:'Cascadia Code';-inkscape-font-specification:'Cascadia Code';stroke-width:1.66888"
         aria-label="3000" />
      <path
         d="m 543.90979,24.296848 q -0.97715,0 -1.44001,-0.486596 -0.4589,-0.486595 -0.4589,-1.51517 v -0.348134 q 0,-1.610116 0.81495,-2.4488 0.8189,-0.838685 2.49231,-0.921762 l 0.0791,0.751651 q -2.50418,0.106814 -2.50814,2.247042 h 0.0712 q 0.11868,-0.439123 0.47077,-0.676486 0.35605,-0.24132 0.86638,-0.24132 0.73583,0 1.13539,0.454947 0.39956,0.454947 0.39956,1.285719 0,0.89407 -0.51033,1.396489 -0.50638,0.50242 -1.41231,0.50242 z m 0.0277,-0.727915 q 0.50242,0 0.7833,-0.308573 0.28088,-0.312529 0.28088,-0.862421 0,-0.486595 -0.2611,-0.747695 -0.25715,-0.265056 -0.73978,-0.265056 -0.5499,0 -0.8466,0.284836 -0.29671,0.284836 -0.29671,0.807036 0,0.514288 0.28484,0.80308 0.28484,0.288793 0.79517,0.288793 z m 4.68793,0.727915 q -1.91473,0 -1.91473,-2.848363 0,-2.927484 1.91473,-2.927484 1.91473,0 1.91473,2.927484 0,2.848363 -1.91473,2.848363 z m 0,-0.727915 q 1.06814,0 1.06814,-2.120448 0,-2.199569 -1.06814,-2.199569 -1.06814,0 -1.06814,2.199569 0,2.120448 1.06814,2.120448 z m 0,-1.527039 q -0.26506,0 -0.43121,-0.162199 -0.1622,-0.166154 -0.1622,-0.43121 0,-0.269012 0.1622,-0.431211 0.16615,-0.162198 0.43121,-0.162198 0.26901,0 0.43121,0.162198 0.1622,0.162199 0.1622,0.431211 0,0.265056 -0.1622,0.43121 -0.1622,0.162199 -0.43121,0.162199 z m 4.74727,2.254954 q -1.91473,0 -1.91473,-2.848363 0,-2.927484 1.91473,-2.927484 1.91473,0 1.91473,2.927484 0,2.848363 -1.91473,2.848363 z m 0,-0.727915 q 1.06814,0 1.06814,-2.120448 0,-2.199569 -1.06814,-2.199569 -1.06814,0 -1.06814,2.199569 0,2.120448 1.06814,2.120448 z m 0,-1.527039 q -0.26506,0 -0.43121,-0.162199 -0.1622,-0.166154 -0.1622,-0.43121 0,-0.269012 0.1622,-0.431211 0.16615,-0.162198 0.43121,-0.162198 0.26901,0 0.43121,0.162198 0.1622,0.162199 0.1622,0.431211 0,0.265056 -0.1622,0.43121 -0.1622,0.162199 -0.43121,0.162199 z m 4.74727,2.254954 q -1.91473,0 -1.91473,-2.848363 0,-2.927484 1.91473,-2.927484 1.91474,0 1.91474,2.927484 0,2.848363 -1.91474,2.848363 z m 0,-0.727915 q 1.06814,0 1.06814,-2.120448 0,-2.199569 -1.06814,-2.199569 -1.06813,0 -1.06813,2.199569 0,2.120448 1.06813,2.120448 z m 0,-1.527039 q -0.26505,0 -0.43121,-0.162199 -0.1622,-0.166154 -0.1622,-0.43121 0,-0.269012 0.1622,-0.431211 0.16616,-0.162198 0.43121,-0.162198 0.26901,0 0.43121,0.162198 0.1622,0.162199 0.1622,0.431211 0,0.265056 -0.1622,0.43121 -0.1622,0.162199 -0.43121,0.162199 z"
         id="text74"
         style="font-size:8.10201px;font-family:'Cascadia Code';-inkscape-font-specification:'Cascadia Code';stroke-width:1.66888"
         aria-label="6000" />
      <path
         d="m 713.36097,22.21596 q -0.73583,0 -1.13539,-0.454946 -0.39957,-0.454947 -0.39957,-1.28572 0,-0.898025 0.50638,-1.396489 0.51033,-0.502419 1.41627,-0.502419 0.97715,0 1.43605,0.486595 0.46286,0.486595 0.46286,1.515171 v 0.348133 q 0,1.60616 -0.81891,2.448801 -0.81494,0.838684 -2.48836,0.921762 l -0.0791,-0.751652 q 2.50419,-0.106813 2.50814,-2.247041 h -0.0712 q -0.11868,0.439122 -0.47472,0.680442 -0.35209,0.237363 -0.86242,0.237363 z m 0.2967,-0.727915 q 0.54989,0 0.8466,-0.284836 0.2967,-0.284836 0.2967,-0.807036 0,-0.514288 -0.28483,-0.80308 -0.28484,-0.288792 -0.79517,-0.288792 -0.50242,0 -0.7833,0.308572 -0.28088,0.308573 -0.28088,0.862421 0,0.486596 0.25714,0.751652 0.2611,0.261099 0.74374,0.261099 z m 4.83035,2.808803 q -1.91473,0 -1.91473,-2.848363 0,-2.927484 1.91473,-2.927484 1.91473,0 1.91473,2.927484 0,2.848363 -1.91473,2.848363 z m 0,-0.727915 q 1.06814,0 1.06814,-2.120448 0,-2.199569 -1.06814,-2.199569 -1.06814,0 -1.06814,2.199569 0,2.120448 1.06814,2.120448 z m 0,-1.527039 q -0.26506,0 -0.43121,-0.162199 -0.1622,-0.166154 -0.1622,-0.43121 0,-0.269012 0.1622,-0.431211 0.16615,-0.162198 0.43121,-0.162198 0.26901,0 0.43121,0.162198 0.1622,0.162199 0.1622,0.431211 0,0.265056 -0.1622,0.43121 -0.1622,0.162199 -0.43121,0.162199 z m 4.74727,2.254954 q -1.91473,0 -1.91473,-2.848363 0,-2.927484 1.91473,-2.927484 1.91473,0 1.91473,2.927484 0,2.848363 -1.91473,2.848363 z m 0,-0.727915 q 1.06814,0 1.06814,-2.120448 0,-2.199569 -1.06814,-2.199569 -1.06814,0 -1.06814,2.199569 0,2.120448 1.06814,2.120448 z m 0,-1.527039 q -0.26506,0 -0.43121,-0.162199 -0.1622,-0.166154 -0.1622,-0.43121 0,-0.269012 0.1622,-0.431211 0.16615,-0.162198 0.43121,-0.162198 0.26901,0 0.43121,0.162198 0.1622,0.162199 0.1622,0.431211 0,0.265056 -0.1622,0.43121 -0.1622,0.162199 -0.43121,0.162199 z m 4.74727,2.254954 q -1.91473,0 -1.91473,-2.848363 0,-2.927484 1.91473,-2.927484 1.91473,0 1.91473,2.927484 0,2.848363 -1.91473,2.848363 z m 0,-0.727915 q 1.06814,0 1.06814,-2.120448 0,-2.199569 -1.06814,-2.199569 -1.06813,0 -1.06813,2.199569 0,2.120448 1.06813,2.120448 z m 0,-1.527039 q -0.26505,0 -0.43121,-0.162199 -0.1622,-0.166154 -0.1622,-0.43121 0,-0.269012 0.1622,-0.431211 0.16616,-0.162198 0.43121,-0.162198 0.26901,0 0.43121,0.162198 0.1622,0.162199 0.1622,0.431211 0,0.265056 -0.1622,0.43121 -0.1622,0.162199 -0.43121,0.162199 z"
         id="text75"
         style="font-size:8.10201px;font-family:'Cascadia Code';-inkscape-font-specification:'Cascadia Code';stroke-width:1.66888"
         aria-label="9000" />
      <path
         d="m 878.69931,24.217727 v -0.751652 h 1.40836 V 19.41507 l -1.32924,0.458903 v -0.799124 l 1.32924,-0.474727 h 0.82286 v 4.865953 h 1.25802 v 0.751652 z m 4.67606,0 v -0.901982 q 1.30155,-0.720003 1.94243,-1.495391 0.64484,-0.779343 0.64484,-1.60616 0,-0.965278 -0.95737,-0.965278 -0.32044,0 -0.66858,0.185935 -0.34813,0.185934 -0.59736,0.494507 l -0.54594,-0.54198 q 0.27297,-0.39165 0.77539,-0.629014 0.50242,-0.237363 1.05231,-0.237363 1.77232,0 1.77232,1.693193 0,0.850553 -0.54198,1.633853 -0.53803,0.779344 -1.64177,1.499346 v 0.118682 h 2.42111 v 0.751652 z m 6.51959,0.07912 q -1.91473,0 -1.91473,-2.848363 0,-2.927484 1.91473,-2.927484 1.91473,0 1.91473,2.927484 0,2.848363 -1.91473,2.848363 z m 0,-0.727915 q 1.06813,0 1.06813,-2.120448 0,-2.199569 -1.06813,-2.199569 -1.06814,0 -1.06814,2.199569 0,2.120448 1.06814,2.120448 z m 0,-1.527039 q -0.26506,0 -0.43121,-0.162199 -0.1622,-0.166154 -0.1622,-0.43121 0,-0.269012 0.1622,-0.431211 0.16615,-0.162198 0.43121,-0.162198 0.26901,0 0.43121,0.162198 0.1622,0.162199 0.1622,0.431211 0,0.265056 -0.1622,0.43121 -0.1622,0.162199 -0.43121,0.162199 z m 4.74727,2.254954 q -1.91473,0 -1.91473,-2.848363 0,-2.927484 1.91473,-2.927484 1.91473,0 1.91473,2.927484 0,2.848363 -1.91473,2.848363 z m 0,-0.727915 q 1.06814,0 1.06814,-2.120448 0,-2.199569 -1.06814,-2.199569 -1.06814,0 -1.06814,2.199569 0,2.120448 1.06814,2.120448 z m 0,-1.527039 q -0.26506,0 -0.43121,-0.162199 -0.1622,-0.166154 -0.1622,-0.43121 0,-0.269012 0.1622,-0.431211 0.16615,-0.162198 0.43121,-0.162198 0.26901,0 0.43121,0.162198 0.1622,0.162199 0.1622,0.431211 0,0.265056 -0.1622,0.43121 -0.1622,0.162199 -0.43121,0.162199 z m 4.74727,2.254954 q -1.91473,0 -1.91473,-2.848363 0,-2.927484 1.91473,-2.927484 1.91473,0 1.91473,2.927484 0,2.848363 -1.91473,2.848363 z m 0,-0.727915 q 1.06814,0 1.06814,-2.120448 0,-2.199569 -1.06814,-2.199569 -1.06813,0 -1.06813,2.199569 0,2.120448 1.06813,2.120448 z m 0,-1.527039 q -0.26505,0 -0.43121,-0.162199 -0.1622,-0.166154 -0.1622,-0.43121 0,-0.269012 0.1622,-0.431211 0.16616,-0.162198 0.43121,-0.162198 0.26901,0 0.43121,0.162198 0.1622,0.162199 0.1622,0.431211 0,0.265056 -0.1622,0.43121 -0.1622,0.162199 -0.43121,0.162199 z m 4.32793,1.424181 v -1.689237 h -1.55869 v -0.735826 h 1.55869 v -1.681326 h 0.83869 v 1.681326 h 1.55868 v 0.735827 h -1.55868 v 1.689237 z"
         id="text76"
         style="font-size:8.10201px;font-family:'Cascadia Code';-inkscape-font-specification:'Cascadia Code';stroke-width:1.66888"
         aria-label="12000+" />
    </g>
  </g>
  <metadata
     id="metadata1">
    <rdf:RDF>
      <cc:Work
         rdf:about="">
        <dc:title>Altitude Legend (m)</dc:title>
      </cc:Work>
    </rdf:RDF>
  </metadata>
</svg>
